<mxfile host="65bd71144e" pages="5">
    <diagram id="GtNouEbLjEnSfhqDkoUu" name="Contexto">
        <mxGraphModel dx="1017" dy="869" grid="1" gridSize="8" guides="1" tooltips="1" connect="1" arrows="1" fold="1" page="0" pageScale="1" pageWidth="1200" pageHeight="1920" background="#333333" math="0" shadow="0">
            <root>
                <mxCell id="0"/>
                <mxCell id="1" parent="0"/>
                <mxCell id="LHz8w9QYUBxM8aZWw0CJ-5" style="edgeStyle=orthogonalEdgeStyle;rounded=1;orthogonalLoop=1;jettySize=auto;html=1;exitX=0.5;exitY=1;exitDx=0;exitDy=0;exitPerimeter=0;fontSize=11;fontColor=#CCCCCC;strokeColor=#788AA3;strokeWidth=4;fillColor=#B2C9AB;" parent="1" source="LHz8w9QYUBxM8aZWw0CJ-1" target="LHz8w9QYUBxM8aZWw0CJ-2" edge="1">
                    <mxGeometry relative="1" as="geometry"/>
                </mxCell>
                <object placeholders="1" c4Name="Sistema de Gestion y Logistica" c4Type="Software System" c4Description="Permite gestionar pedidos, ubicacion de productos, fechas de caducidad" label="&lt;font style=&quot;font-size: 16px&quot;&gt;&lt;b&gt;%c4Name%&lt;/b&gt;&lt;/font&gt;&lt;div&gt;[%c4Type%]&lt;/div&gt;&lt;br&gt;&lt;div&gt;&lt;font style=&quot;font-size: 11px&quot;&gt;&lt;font color=&quot;#cccccc&quot;&gt;%c4Description%&lt;/font&gt;&lt;/div&gt;" id="LHz8w9QYUBxM8aZWw0CJ-1">
                    <mxCell style="rounded=1;whiteSpace=wrap;html=1;labelBackgroundColor=none;fillColor=#82B366;fontColor=#ffffff;align=center;arcSize=10;strokeColor=#82B366;metaEdit=1;resizable=0;points=[[0.25,0,0],[0.5,0,0],[0.75,0,0],[1,0.25,0],[1,0.5,0],[1,0.75,0],[0.75,1,0],[0.5,1,0],[0.25,1,0],[0,0.75,0],[0,0.5,0],[0,0.25,0]];shadow=0;labelBorderColor=none;sketch=0;fontSize=11;" parent="1" vertex="1">
                        <mxGeometry x="-44" y="88" width="240" height="120" as="geometry"/>
                    </mxCell>
                </object>
                <object placeholders="1" c4Name="Sistema Externo QPOS" c4Type="Software System" c4Description="Sistema de facturacion, se optendra informacion sobre clietes, proveedores, preeventas(checkout), productos" label="&lt;font style=&quot;font-size: 16px&quot;&gt;&lt;b&gt;%c4Name%&lt;/b&gt;&lt;/font&gt;&lt;div&gt;[%c4Type%]&lt;/div&gt;&lt;br&gt;&lt;div&gt;&lt;font style=&quot;font-size: 11px&quot;&gt;&lt;font color=&quot;#cccccc&quot;&gt;%c4Description%&lt;/font&gt;&lt;/div&gt;" id="LHz8w9QYUBxM8aZWw0CJ-2">
                    <mxCell style="rounded=1;whiteSpace=wrap;html=1;labelBackgroundColor=none;fillColor=#8C8496;fontColor=#ffffff;align=center;arcSize=10;strokeColor=#736782;metaEdit=1;resizable=0;points=[[0.25,0,0],[0.5,0,0],[0.75,0,0],[1,0.25,0],[1,0.5,0],[1,0.75,0],[0.75,1,0],[0.5,1,0],[0.25,1,0],[0,0.75,0],[0,0.5,0],[0,0.25,0]];shadow=0;labelBorderColor=none;sketch=0;fontSize=11;" parent="1" vertex="1">
                        <mxGeometry x="-44" y="344" width="240" height="120" as="geometry"/>
                    </mxCell>
                </object>
                <object label="" id="LHz8w9QYUBxM8aZWw0CJ-4">
                    <mxCell style="edgeStyle=orthogonalEdgeStyle;rounded=1;orthogonalLoop=1;jettySize=auto;html=1;fontSize=11;fontColor=#CCCCCC;strokeColor=#788AA3;strokeWidth=4;fillColor=#B2C9AB;" parent="1" source="LHz8w9QYUBxM8aZWw0CJ-3" target="LHz8w9QYUBxM8aZWw0CJ-1" edge="1">
                        <mxGeometry relative="1" as="geometry"/>
                    </mxCell>
                </object>
                <object placeholders="1" c4Name="Personal de empresa" c4Type="Person" c4Description="Personal de la empresa con roles &#10;de gestion de pedidos y bodegaje" label="&lt;font style=&quot;font-size: 16px&quot;&gt;&lt;b&gt;%c4Name%&lt;/b&gt;&lt;/font&gt;&lt;div&gt;[%c4Type%]&lt;/div&gt;&lt;br&gt;&lt;div&gt;&lt;font style=&quot;font-size: 11px&quot;&gt;&lt;font color=&quot;#cccccc&quot;&gt;%c4Description%&lt;/font&gt;&lt;/div&gt;" id="LHz8w9QYUBxM8aZWw0CJ-3">
                    <mxCell style="html=1;fontSize=11;dashed=0;whitespace=wrap;fillColor=#083F75;strokeColor=#06315C;fontColor=#ffffff;shape=mxgraph.c4.person2;align=center;metaEdit=1;points=[[0.5,0,0],[1,0.5,0],[1,0.75,0],[0.75,1,0],[0.5,1,0],[0.25,1,0],[0,0.75,0],[0,0.5,0]];resizable=0;rounded=0;shadow=0;labelBackgroundColor=none;labelBorderColor=none;sketch=0;" parent="1" vertex="1">
                        <mxGeometry x="-24" y="-216" width="200" height="180" as="geometry"/>
                    </mxCell>
                </object>
                <mxCell id="WWRUKsRYky_Zpq3xXUld-1" value="Legend" style="align=left;fontSize=16;fontStyle=1;strokeColor=none;fillColor=none;fontColor=#4D4D4D;spacingTop=-8;resizable=0;rounded=0;shadow=0;labelBackgroundColor=none;labelBorderColor=none;sketch=0;html=1;" parent="1" vertex="1">
                    <mxGeometry x="-336" y="322" width="180" height="30" as="geometry"/>
                </mxCell>
                <mxCell id="WWRUKsRYky_Zpq3xXUld-2" value="" style="shape=table;html=1;whiteSpace=wrap;startSize=0;container=1;collapsible=0;childLayout=tableLayout;fillColor=none;align=left;spacingLeft=10;strokeColor=none;rounded=1;arcSize=11;fontColor=#FFFFFF;resizable=0;points=[[0.25,0,0],[0.5,0,0],[0.75,0,0],[1,0.25,0],[1,0.5,0],[1,0.75,0],[0.75,1,0],[0.5,1,0],[0.25,1,0],[0,0.75,0],[0,0.5,0],[0,0.25,0]];shadow=0;labelBackgroundColor=none;labelBorderColor=none;sketch=0;fontSize=11;" parent="1" vertex="1">
                    <mxGeometry x="-336" y="352" width="180" height="90" as="geometry"/>
                </mxCell>
                <mxCell id="WWRUKsRYky_Zpq3xXUld-3" value="Person" style="shape=partialRectangle;html=1;whiteSpace=wrap;connectable=0;fillColor=#1E4074;top=0;left=0;bottom=0;right=0;overflow=hidden;pointerEvents=1;align=left;spacingLeft=10;strokeColor=none;fontColor=#FFFFFF;rounded=0;shadow=0;labelBackgroundColor=none;labelBorderColor=none;sketch=0;fontSize=11;" parent="WWRUKsRYky_Zpq3xXUld-2" vertex="1">
                    <mxGeometry width="180" height="30" as="geometry"/>
                </mxCell>
                <mxCell id="WWRUKsRYky_Zpq3xXUld-4" value="Software System" style="shape=partialRectangle;html=1;whiteSpace=wrap;connectable=0;fillColor=#82B366;top=0;left=0;bottom=0;right=0;overflow=hidden;pointerEvents=1;align=left;spacingLeft=10;fontColor=#FFFFFF;rounded=0;shadow=0;labelBackgroundColor=none;labelBorderColor=none;sketch=0;fontSize=11;strokeColor=#82B366;strokeWidth=3;" parent="WWRUKsRYky_Zpq3xXUld-2" vertex="1">
                    <mxGeometry y="30" width="180" height="30" as="geometry"/>
                </mxCell>
                <mxCell id="WWRUKsRYky_Zpq3xXUld-8" value="External Software System" style="shape=partialRectangle;html=1;whiteSpace=wrap;connectable=0;fillColor=#8B8496;top=0;left=0;bottom=0;right=0;overflow=hidden;pointerEvents=1;align=left;spacingLeft=10;fontColor=#FFFFFF;rounded=0;shadow=0;labelBackgroundColor=none;labelBorderColor=none;sketch=0;fontSize=11;strokeColor=#82B366;strokeWidth=3;" parent="WWRUKsRYky_Zpq3xXUld-2" vertex="1">
                    <mxGeometry y="60" width="180" height="30" as="geometry"/>
                </mxCell>
            </root>
        </mxGraphModel>
    </diagram>
    <diagram id="Gw28dnGVRJ3mLAjIvO-9" name="Contenedor">
        <mxGraphModel dx="2084" dy="2191" grid="1" gridSize="8" guides="1" tooltips="1" connect="1" arrows="1" fold="1" page="0" pageScale="1" pageWidth="1200" pageHeight="1920" background="#333333" math="0" shadow="0">
            <root>
                <mxCell id="0"/>
                <mxCell id="1" parent="0"/>
                <object placeholders="1" c4Name="Administrador de pedidos" c4Type="Personal Administrativo" c4Description="Administrador de pedidos&#10;(FacturaciÃ³n, Servicio al cliente)" label="&lt;font style=&quot;font-size: 16px&quot;&gt;&lt;b&gt;%c4Name%&lt;/b&gt;&lt;/font&gt;&lt;div&gt;[%c4Type%]&lt;/div&gt;&lt;br&gt;&lt;div&gt;&lt;font style=&quot;font-size: 11px&quot;&gt;&lt;font&gt;%c4Description%&lt;/font&gt;&lt;/font&gt;&lt;/div&gt;" id="oN-QiMgkpN6Od5u8GUC4-2">
                    <mxCell style="html=1;fontSize=11;dashed=0;whitespace=wrap;shape=mxgraph.c4.person2;align=center;metaEdit=1;points=[[0.5,0,0],[1,0.5,0],[1,0.75,0],[0.75,1,0],[0.5,1,0],[0.25,1,0],[0,0.75,0],[0,0.5,0]];resizable=0;labelBorderColor=none;labelBackgroundColor=none;shadow=0;sketch=0;spacingTop=0;spacingLeft=0;perimeterSpacing=0;spacing=2;fillColor=#647687;fontColor=#ffffff;strokeColor=#314354;" parent="1" vertex="1">
                        <mxGeometry x="-1512" y="-1448" width="200" height="180" as="geometry"/>
                    </mxCell>
                </object>
                <mxCell id="5mUTL3dETUTQRnBZAkU8-11" style="edgeStyle=orthogonalEdgeStyle;rounded=1;orthogonalLoop=1;jettySize=auto;html=1;fontSize=11;fontColor=#CCCCCC;strokeColor=#788AA3;strokeWidth=4;fillColor=#B2C9AB;" parent="1" source="oN-QiMgkpN6Od5u8GUC4-3" target="5mUTL3dETUTQRnBZAkU8-9" edge="1">
                    <mxGeometry relative="1" as="geometry"/>
                </mxCell>
                <object placeholders="1" c4Name="Sistema Externo QPOS" c4Type="Software System" c4Description="Sistema de facturacion, se optendra informacion sobre clietes, proveedores, preeventas(checkout), productos" label="&lt;font style=&quot;font-size: 16px&quot;&gt;&lt;b&gt;%c4Name%&lt;/b&gt;&lt;/font&gt;&lt;div&gt;[%c4Type%]&lt;/div&gt;&lt;br&gt;&lt;div&gt;&lt;font style=&quot;font-size: 11px&quot;&gt;&lt;font color=&quot;#cccccc&quot;&gt;%c4Description%&lt;/font&gt;&lt;/div&gt;" id="oN-QiMgkpN6Od5u8GUC4-3">
                    <mxCell style="rounded=1;whiteSpace=wrap;html=1;labelBackgroundColor=none;fillColor=#8C8496;fontColor=#ffffff;align=center;arcSize=10;strokeColor=#736782;metaEdit=1;resizable=0;points=[[0.25,0,0],[0.5,0,0],[0.75,0,0],[1,0.25,0],[1,0.5,0],[1,0.75,0],[0.75,1,0],[0.5,1,0],[0.25,1,0],[0,0.75,0],[0,0.5,0],[0,0.25,0]];" parent="1" vertex="1">
                        <mxGeometry x="-552" y="-1112" width="240" height="120" as="geometry"/>
                    </mxCell>
                </object>
                <object placeholders="1" c4Name="Alistador de Pedidos" c4Type="Personal Bodega&#10;" c4Description="Gestiona alisto y despacho de pedidos" label="&lt;font style=&quot;font-size: 16px&quot;&gt;&lt;b&gt;%c4Name%&lt;/b&gt;&lt;/font&gt;&lt;div&gt;[%c4Type%]&lt;/div&gt;&lt;br&gt;&lt;div&gt;&lt;font style=&quot;font-size: 11px&quot;&gt;&lt;font&gt;%c4Description%&lt;/font&gt;&lt;/font&gt;&lt;/div&gt;" id="oN-QiMgkpN6Od5u8GUC4-5">
                    <mxCell style="html=1;fontSize=11;dashed=0;whitespace=wrap;fillColor=#6666FF;strokeColor=#788AA3;fontColor=#CCCCCC;shape=mxgraph.c4.person2;align=center;metaEdit=1;points=[[0.5,0,0],[1,0.5,0],[1,0.75,0],[0.75,1,0],[0.5,1,0],[0.25,1,0],[0,0.75,0],[0,0.5,0]];resizable=0;" parent="1" vertex="1">
                        <mxGeometry x="-1168" y="-1568" width="200" height="180" as="geometry"/>
                    </mxCell>
                </object>
                <object placeholders="1" c4Name="Sistema de Gestion y Logistica" c4Type="SystemScopeBoundary" c4Application="Software System" label="&lt;font style=&quot;font-size: 16px&quot;&gt;&lt;b&gt;&lt;div style=&quot;text-align: left&quot;&gt;%c4Name%&lt;/div&gt;&lt;/b&gt;&lt;/font&gt;&lt;div style=&quot;text-align: left&quot;&gt;[%c4Application%]&lt;/div&gt;" id="oN-QiMgkpN6Od5u8GUC4-6">
                    <mxCell style="rounded=1;fontSize=11;whiteSpace=wrap;html=1;dashed=1;arcSize=20;labelBackgroundColor=none;align=left;verticalAlign=bottom;labelBorderColor=none;spacingTop=0;spacing=10;dashPattern=8 4;metaEdit=1;rotatable=0;perimeter=rectanglePerimeter;labelPadding=0;allowArrows=0;connectable=0;expand=0;recursiveResize=0;editable=1;pointerEvents=0;absoluteArcSize=1;points=[[0.25,0,0],[0.5,0,0],[0.75,0,0],[1,0.25,0],[1,0.5,0],[1,0.75,0],[0.75,1,0],[0.5,1,0],[0.25,1,0],[0,0.75,0],[0,0.5,0],[0,0.25,0]];shadow=0;sketch=0;strokeWidth=3;fillColor=none;strokeColor=#82b366;fontColor=#CCCCCC;" parent="1" vertex="1">
                        <mxGeometry x="-1496" y="-1208" width="860" height="694" as="geometry"/>
                    </mxCell>
                </object>
                <object placeholders="1" c4Name="Aplicacion Web Progresiva (PWA)" c4Type="Container" c4Technology="Java Script, ReactJS" c4Description="Provee todo el funcionamiento para la logistica de bodega y gestion de pedidos" label="&lt;font style=&quot;font-size: 16px&quot;&gt;&lt;b&gt;%c4Name%&lt;/b&gt;&lt;/font&gt;&lt;div&gt;[%c4Type%: %c4Technology%]&lt;/div&gt;&lt;br&gt;&lt;div&gt;&lt;font style=&quot;font-size: 11px&quot;&gt;&lt;font color=&quot;#E6E6E6&quot;&gt;%c4Description%&lt;/font&gt;&lt;/div&gt;" id="cp23KhsfysKYRUPBVAbC-2">
                    <mxCell style="rounded=1;whiteSpace=wrap;html=1;fontSize=11;labelBackgroundColor=none;fillColor=#23A2D9;fontColor=#ffffff;align=center;arcSize=10;strokeColor=#0E7DAD;metaEdit=1;resizable=0;points=[[0.25,0,0],[0.5,0,0],[0.75,0,0],[1,0.25,0],[1,0.5,0],[1,0.75,0],[0.75,1,0],[0.5,1,0],[0.25,1,0],[0,0.75,0],[0,0.5,0],[0,0.25,0]];shadow=0;labelBorderColor=none;sketch=0;" parent="oN-QiMgkpN6Od5u8GUC4-6" vertex="1">
                        <mxGeometry x="328" y="24" width="240" height="120" as="geometry"/>
                    </mxCell>
                </object>
                <object placeholders="1" c4Name="API REST : Local" c4Type="Container" c4Technology="NodeJS, NestJS Framework, Rxjs, SSE, Mongoose" c4Description="Provee localmente los datos del sistema de logistica de bodega y gestion de pedidos mediante JSON/HTTPS API" label="&lt;font style=&quot;font-size: 16px&quot;&gt;&lt;b&gt;%c4Name%&lt;/b&gt;&lt;/font&gt;&lt;div&gt;[%c4Type%: %c4Technology%]&lt;/div&gt;&lt;br&gt;&lt;div&gt;&lt;font style=&quot;font-size: 11px&quot;&gt;&lt;font color=&quot;#E6E6E6&quot;&gt;%c4Description%&lt;/font&gt;&lt;/div&gt;" id="5mUTL3dETUTQRnBZAkU8-1">
                    <mxCell style="rounded=1;whiteSpace=wrap;html=1;fontSize=11;labelBackgroundColor=none;fillColor=#23A2D9;fontColor=#ffffff;align=center;arcSize=10;strokeColor=#0E7DAD;metaEdit=1;resizable=0;points=[[0.25,0,0],[0.5,0,0],[0.75,0,0],[1,0.25,0],[1,0.5,0],[1,0.75,0],[0.75,1,0],[0.5,1,0],[0.25,1,0],[0,0.75,0],[0,0.5,0],[0,0.25,0]];shadow=0;labelBorderColor=none;sketch=0;" parent="oN-QiMgkpN6Od5u8GUC4-6" vertex="1">
                        <mxGeometry x="328" y="271" width="240" height="120" as="geometry"/>
                    </mxCell>
                </object>
                <object placeholders="1" c4Type="NoSQL" c4Container="blogistica_db" c4Technology="MongoDB" c4Description="Guarda informaciÃ³n de usuarios, clientes, proveedores, productos, pedidos." label="&lt;font style=&quot;font-size: 16px&quot;&gt;&lt;b&gt;%c4Type%&lt;/font&gt;&lt;div&gt;[%c4Container%:&amp;nbsp;%c4Technology%]&lt;/div&gt;&lt;br&gt;&lt;div&gt;&lt;font style=&quot;font-size: 11px&quot;&gt;&lt;font color=&quot;#E6E6E6&quot;&gt;%c4Description%&lt;/font&gt;&lt;/div&gt;" id="oN-QiMgkpN6Od5u8GUC4-21">
                    <mxCell style="shape=cylinder3;size=15;whiteSpace=wrap;html=1;boundedLbl=1;rounded=0;labelBackgroundColor=none;fillColor=#23A2D9;fontSize=12;fontColor=#ffffff;align=center;strokeColor=#0E7DAD;metaEdit=1;points=[[0.5,0,0],[1,0.25,0],[1,0.5,0],[1,0.75,0],[0.5,1,0],[0,0.75,0],[0,0.5,0],[0,0.25,0]];resizable=0;shadow=0;labelBorderColor=none;sketch=0;" parent="oN-QiMgkpN6Od5u8GUC4-6" vertex="1">
                        <mxGeometry x="328" y="536" width="240" height="120" as="geometry"/>
                    </mxCell>
                </object>
                <object placeholders="1" c4Type="Relationship" c4Technology="JSON/HTTP" c4Description="Llamada a la API" label="&lt;div style=&quot;text-align: left&quot;&gt;&lt;div style=&quot;text-align: center&quot;&gt;&lt;b&gt;%c4Description%&lt;/b&gt;&lt;/div&gt;&lt;div style=&quot;text-align: center&quot;&gt;[%c4Technology%]&lt;/div&gt;&lt;/div&gt;" id="IrsWWPjT2bijSpYUrNHR-9">
                    <mxCell style="endArrow=blockThin;html=1;fontSize=10;fontColor=#D5E8D4;strokeWidth=3;endFill=1;strokeColor=#d6b656;elbow=vertical;metaEdit=1;endSize=14;startSize=14;jumpStyle=arc;jumpSize=16;rounded=1;edgeStyle=orthogonalEdgeStyle;shadow=0;labelBackgroundColor=none;sketch=0;fillColor=#fff2cc;dashed=1;exitX=0.5;exitY=1;exitDx=0;exitDy=0;exitPerimeter=0;spacingLeft=110;" parent="oN-QiMgkpN6Od5u8GUC4-6" source="cp23KhsfysKYRUPBVAbC-2" target="5mUTL3dETUTQRnBZAkU8-1" edge="1">
                        <mxGeometry x="-0.2667" width="240" relative="1" as="geometry">
                            <mxPoint x="356" y="288" as="sourcePoint"/>
                            <mxPoint x="596" y="288" as="targetPoint"/>
                            <mxPoint as="offset"/>
                        </mxGeometry>
                    </mxCell>
                </object>
                <object placeholders="1" c4Type="Relationship" c4Technology="Mongoose" c4Description="Lee y escribre" label="&lt;div style=&quot;text-align: left&quot;&gt;&lt;div style=&quot;text-align: center&quot;&gt;&lt;b&gt;%c4Description%&lt;/b&gt;&lt;/div&gt;&lt;div style=&quot;text-align: center&quot;&gt;[%c4Technology%]&lt;/div&gt;&lt;/div&gt;" id="IrsWWPjT2bijSpYUrNHR-10">
                    <mxCell style="endArrow=blockThin;html=1;fontSize=10;fontColor=#D5E8D4;strokeWidth=3;endFill=1;strokeColor=#d6b656;elbow=vertical;metaEdit=1;endSize=14;startSize=14;jumpStyle=arc;jumpSize=16;rounded=1;edgeStyle=orthogonalEdgeStyle;shadow=0;labelBackgroundColor=none;sketch=0;fillColor=#fff2cc;dashed=1;exitX=0.5;exitY=1;exitDx=0;exitDy=0;exitPerimeter=0;spacingLeft=110;entryX=0.5;entryY=0;entryDx=0;entryDy=0;entryPerimeter=0;" parent="oN-QiMgkpN6Od5u8GUC4-6" source="5mUTL3dETUTQRnBZAkU8-1" target="oN-QiMgkpN6Od5u8GUC4-21" edge="1">
                        <mxGeometry x="-0.2667" width="240" relative="1" as="geometry">
                            <mxPoint x="364" y="168" as="sourcePoint"/>
                            <mxPoint x="364" y="312" as="targetPoint"/>
                            <mxPoint as="offset"/>
                        </mxGeometry>
                    </mxCell>
                </object>
                <mxCell id="oN-QiMgkpN6Od5u8GUC4-12" value="Legenda" style="align=left;fontSize=16;fontStyle=1;strokeColor=none;fillColor=none;fontColor=#E6E6E6;spacingTop=-8;resizable=0;rounded=0;shadow=0;labelBackgroundColor=none;labelBorderColor=none;sketch=0;html=1;" parent="1" vertex="1">
                    <mxGeometry x="-608" y="-706" width="180" height="30" as="geometry"/>
                </mxCell>
                <mxCell id="oN-QiMgkpN6Od5u8GUC4-13" value="" style="shape=table;html=1;whiteSpace=wrap;startSize=0;container=1;collapsible=0;childLayout=tableLayout;fillColor=none;align=left;spacingLeft=10;strokeColor=none;rounded=1;arcSize=11;fontColor=#FFFFFF;resizable=0;points=[[0.25,0,0],[0.5,0,0],[0.75,0,0],[1,0.25,0],[1,0.5,0],[1,0.75,0],[0.75,1,0],[0.5,1,0],[0.25,1,0],[0,0.75,0],[0,0.5,0],[0,0.25,0]];shadow=0;labelBackgroundColor=none;labelBorderColor=none;sketch=0;fontSize=11;" parent="1" vertex="1">
                    <mxGeometry x="-608" y="-676" width="180" height="140" as="geometry"/>
                </mxCell>
                <mxCell id="oN-QiMgkpN6Od5u8GUC4-14" value="Personal Administrativo" style="shape=partialRectangle;html=1;whiteSpace=wrap;connectable=0;fillColor=#647687;top=0;left=0;bottom=0;right=0;overflow=hidden;pointerEvents=1;align=left;spacingLeft=10;strokeColor=none;fontColor=#FFFFFF;rounded=0;shadow=0;labelBackgroundColor=none;labelBorderColor=none;sketch=0;fontSize=11;" parent="oN-QiMgkpN6Od5u8GUC4-13" vertex="1">
                    <mxGeometry width="180" height="30" as="geometry"/>
                </mxCell>
                <mxCell id="oN-QiMgkpN6Od5u8GUC4-15" value="Personal&amp;nbsp; Bodega" style="shape=partialRectangle;html=1;whiteSpace=wrap;connectable=0;fillColor=#6666FF;top=0;left=0;bottom=0;right=0;overflow=hidden;pointerEvents=1;align=left;spacingLeft=10;strokeColor=none;fontColor=#FFFFFF;rounded=0;shadow=0;labelBackgroundColor=none;labelBorderColor=none;sketch=0;fontSize=11;" parent="oN-QiMgkpN6Od5u8GUC4-13" vertex="1">
                    <mxGeometry y="30" width="180" height="30" as="geometry"/>
                </mxCell>
                <mxCell id="oN-QiMgkpN6Od5u8GUC4-16" value="Software System" style="shape=partialRectangle;html=1;whiteSpace=wrap;connectable=0;fillColor=#82B366;top=0;left=0;bottom=0;right=0;overflow=hidden;pointerEvents=1;align=left;spacingLeft=10;fontColor=#FFFFFF;rounded=0;shadow=0;labelBackgroundColor=none;labelBorderColor=none;sketch=0;fontSize=11;strokeColor=default;strokeWidth=3;" parent="oN-QiMgkpN6Od5u8GUC4-13" vertex="1">
                    <mxGeometry y="60" width="180" height="20" as="geometry"/>
                </mxCell>
                <mxCell id="oN-QiMgkpN6Od5u8GUC4-17" value="Container" style="shape=partialRectangle;html=1;whiteSpace=wrap;connectable=0;fillColor=#52A2D8;top=0;left=0;bottom=0;right=0;overflow=hidden;pointerEvents=1;align=left;spacingLeft=10;fontColor=#FFFFFF;rounded=0;shadow=0;labelBackgroundColor=none;labelBorderColor=none;sketch=0;fontSize=11;strokeColor=default;strokeWidth=3;" parent="oN-QiMgkpN6Od5u8GUC4-13" vertex="1">
                    <mxGeometry y="80" width="180" height="30" as="geometry"/>
                </mxCell>
                <mxCell id="oN-QiMgkpN6Od5u8GUC4-20" value="External Software System" style="shape=partialRectangle;html=1;whiteSpace=wrap;connectable=0;fillColor=#8B8496;top=0;left=0;bottom=0;right=0;overflow=hidden;pointerEvents=1;align=left;spacingLeft=10;fontColor=#FFFFFF;rounded=0;shadow=0;labelBackgroundColor=none;labelBorderColor=none;sketch=0;fontSize=11;strokeColor=default;strokeWidth=3;" parent="oN-QiMgkpN6Od5u8GUC4-13" vertex="1">
                    <mxGeometry y="110" width="180" height="30" as="geometry"/>
                </mxCell>
                <object placeholders="1" c4Name="Bodeguero" c4Type="Personal Bodega&#10;" c4Description="Administra inventario" label="&lt;font style=&quot;font-size: 16px&quot;&gt;&lt;b&gt;%c4Name%&lt;/b&gt;&lt;/font&gt;&lt;div&gt;[%c4Type%]&lt;/div&gt;&lt;br&gt;&lt;div&gt;&lt;font style=&quot;font-size: 11px&quot;&gt;&lt;font&gt;%c4Description%&lt;/font&gt;&lt;/font&gt;&lt;/div&gt;" id="5mUTL3dETUTQRnBZAkU8-12">
                    <mxCell style="html=1;fontSize=11;dashed=0;whitespace=wrap;fillColor=#6666FF;strokeColor=#788AA3;fontColor=#CCCCCC;shape=mxgraph.c4.person2;align=center;metaEdit=1;points=[[0.5,0,0],[1,0.5,0],[1,0.75,0],[0.75,1,0],[0.5,1,0],[0.25,1,0],[0,0.75,0],[0,0.5,0]];resizable=0;" parent="1" vertex="1">
                        <mxGeometry x="-816" y="-1456" width="200" height="180" as="geometry"/>
                    </mxCell>
                </object>
                <mxCell id="5mUTL3dETUTQRnBZAkU8-9" value="" style="shape=waypoint;sketch=0;size=6;pointerEvents=1;points=[];fillColor=#23A2D9;resizable=0;rotatable=0;perimeter=centerPerimeter;snapToPoint=1;fontSize=11;strokeColor=#0E7DAD;fontColor=#ffffff;rounded=1;labelBackgroundColor=none;arcSize=10;shadow=0;labelBorderColor=none;" parent="1" vertex="1">
                    <mxGeometry x="-656" y="-1120" width="40" height="40" as="geometry"/>
                </mxCell>
                <mxCell id="5mUTL3dETUTQRnBZAkU8-14" style="edgeStyle=orthogonalEdgeStyle;rounded=1;orthogonalLoop=1;jettySize=auto;html=1;exitX=0.5;exitY=1;exitDx=0;exitDy=0;exitPerimeter=0;fontSize=11;fontColor=#CCCCCC;strokeColor=#788AA3;strokeWidth=4;fillColor=#B2C9AB;" parent="1" source="oN-QiMgkpN6Od5u8GUC4-2" target="oN-QiMgkpN6Od5u8GUC4-2" edge="1">
                    <mxGeometry relative="1" as="geometry"/>
                </mxCell>
                <object placeholders="1" c4Type="Relationship" c4Description="Usa" label="&lt;div style=&quot;text-align: left; font-size: 20px;&quot;&gt;&lt;div style=&quot;text-align: center; font-size: 20px;&quot;&gt;&lt;b style=&quot;font-size: 20px;&quot;&gt;%c4Description%&lt;/b&gt;&lt;/div&gt;&lt;/div&gt;" id="IrsWWPjT2bijSpYUrNHR-2">
                    <mxCell style="endArrow=blockThin;html=1;fontSize=20;fontColor=#D5E8D4;strokeWidth=5;endFill=1;strokeColor=#d6b656;elbow=vertical;metaEdit=1;jumpStyle=arc;jumpSize=16;rounded=1;edgeStyle=orthogonalEdgeStyle;fillColor=#fff2cc;exitX=1;exitY=0.75;exitDx=0;exitDy=0;exitPerimeter=0;entryX=0;entryY=0.5;entryDx=0;entryDy=0;entryPerimeter=0;labelBackgroundColor=none;spacingLeft=0;shadow=0;sketch=0;spacingTop=20;" parent="1" source="oN-QiMgkpN6Od5u8GUC4-2" target="cp23KhsfysKYRUPBVAbC-2" edge="1">
                        <mxGeometry x="-0.3379" width="240" relative="1" as="geometry">
                            <mxPoint x="-1176" y="-1280" as="sourcePoint"/>
                            <mxPoint x="-936" y="-1280" as="targetPoint"/>
                            <Array as="points">
                                <mxPoint x="-1232" y="-1313"/>
                                <mxPoint x="-1232" y="-1124"/>
                            </Array>
                            <mxPoint as="offset"/>
                        </mxGeometry>
                    </mxCell>
                </object>
                <object placeholders="1" c4Type="Relationship" c4Description="Usa" label="&lt;div style=&quot;text-align: left; font-size: 20px;&quot;&gt;&lt;div style=&quot;text-align: center; font-size: 20px;&quot;&gt;&lt;b style=&quot;font-size: 20px;&quot;&gt;%c4Description%&lt;/b&gt;&lt;/div&gt;&lt;/div&gt;" id="IrsWWPjT2bijSpYUrNHR-5">
                    <mxCell style="endArrow=blockThin;html=1;fontSize=20;fontColor=#D5E8D4;strokeWidth=5;endFill=1;strokeColor=#d6b656;elbow=vertical;metaEdit=1;jumpStyle=arc;jumpSize=16;rounded=1;edgeStyle=orthogonalEdgeStyle;fillColor=#fff2cc;exitX=0.5;exitY=1;exitDx=0;exitDy=0;exitPerimeter=0;entryX=0.5;entryY=0;entryDx=0;entryDy=0;entryPerimeter=0;labelBackgroundColor=none;spacingLeft=46;shadow=0;sketch=0;" parent="1" source="oN-QiMgkpN6Od5u8GUC4-5" target="cp23KhsfysKYRUPBVAbC-2" edge="1">
                        <mxGeometry x="-0.3379" width="240" relative="1" as="geometry">
                            <mxPoint x="-1039.9999999999998" y="-1368" as="sourcePoint"/>
                            <mxPoint x="-944" y="-1171" as="targetPoint"/>
                            <Array as="points"/>
                            <mxPoint as="offset"/>
                        </mxGeometry>
                    </mxCell>
                </object>
                <object placeholders="1" c4Type="Relationship" c4Description="Usa" label="&lt;div style=&quot;text-align: left; font-size: 20px;&quot;&gt;&lt;div style=&quot;text-align: center; font-size: 20px;&quot;&gt;&lt;b style=&quot;font-size: 20px;&quot;&gt;%c4Description%&lt;/b&gt;&lt;/div&gt;&lt;/div&gt;" id="IrsWWPjT2bijSpYUrNHR-6">
                    <mxCell style="endArrow=blockThin;html=1;fontSize=20;fontColor=#D5E8D4;strokeWidth=5;endFill=1;strokeColor=#d6b656;elbow=vertical;metaEdit=1;jumpStyle=arc;jumpSize=16;rounded=1;edgeStyle=orthogonalEdgeStyle;fillColor=#fff2cc;exitX=-0.002;exitY=0.675;exitDx=0;exitDy=0;exitPerimeter=0;entryX=1;entryY=0.5;entryDx=0;entryDy=0;entryPerimeter=0;labelBackgroundColor=none;spacingLeft=46;shadow=0;sketch=0;" parent="1" source="5mUTL3dETUTQRnBZAkU8-12" target="cp23KhsfysKYRUPBVAbC-2" edge="1">
                        <mxGeometry x="-0.3379" width="240" relative="1" as="geometry">
                            <mxPoint x="-880" y="-1392" as="sourcePoint"/>
                            <mxPoint x="-880" y="-1188" as="targetPoint"/>
                            <Array as="points"/>
                            <mxPoint as="offset"/>
                        </mxGeometry>
                    </mxCell>
                </object>
                <object placeholders="1" c4Type="Relationship" c4Technology="Formato desconocido" c4Description="Llamada a la API" label="&lt;div style=&quot;text-align: left&quot;&gt;&lt;div style=&quot;text-align: center&quot;&gt;&lt;b&gt;%c4Description%&lt;/b&gt;&lt;/div&gt;&lt;div style=&quot;text-align: center&quot;&gt;[%c4Technology%]&lt;/div&gt;&lt;/div&gt;" id="IrsWWPjT2bijSpYUrNHR-11">
                    <mxCell style="endArrow=blockThin;html=1;fontSize=10;fontColor=#D5E8D4;strokeWidth=3;endFill=1;strokeColor=#d6b656;elbow=vertical;metaEdit=1;endSize=14;startSize=14;jumpStyle=arc;jumpSize=16;rounded=1;edgeStyle=orthogonalEdgeStyle;shadow=0;labelBackgroundColor=none;sketch=0;fillColor=#fff2cc;dashed=1;spacingLeft=-110;entryX=0.521;entryY=0.773;entryDx=0;entryDy=0;entryPerimeter=0;exitX=1;exitY=0.5;exitDx=0;exitDy=0;exitPerimeter=0;" parent="1" source="5mUTL3dETUTQRnBZAkU8-1" target="5mUTL3dETUTQRnBZAkU8-9" edge="1">
                        <mxGeometry width="240" relative="1" as="geometry">
                            <mxPoint x="-864" y="-853" as="sourcePoint"/>
                            <mxPoint x="-984" y="-905" as="targetPoint"/>
                            <Array as="points">
                                <mxPoint x="-696" y="-877"/>
                                <mxPoint x="-696" y="-1100"/>
                            </Array>
                        </mxGeometry>
                    </mxCell>
                </object>
            </root>
        </mxGraphModel>
    </diagram>
    <diagram name="Componente: API" id="V8utUizLjnwd0XrRa8MX">
        <mxGraphModel dx="3013" dy="2836" grid="1" gridSize="8" guides="1" tooltips="1" connect="1" arrows="1" fold="1" page="0" pageScale="1" pageWidth="1200" pageHeight="1920" background="#333333" math="0" shadow="0">
            <root>
                <mxCell id="N2_MCTW6JkcHlk387zwp-0"/>
                <mxCell id="N2_MCTW6JkcHlk387zwp-1" parent="N2_MCTW6JkcHlk387zwp-0"/>
                <mxCell id="g28K5lVcTVs5DqOu2bSu-0" style="edgeStyle=orthogonalEdgeStyle;rounded=1;orthogonalLoop=1;jettySize=auto;html=1;fontSize=11;fontColor=#CCCCCC;strokeColor=#788AA3;strokeWidth=4;fillColor=#B2C9AB;" parent="N2_MCTW6JkcHlk387zwp-1" source="g28K5lVcTVs5DqOu2bSu-1" target="g28K5lVcTVs5DqOu2bSu-7" edge="1">
                    <mxGeometry relative="1" as="geometry"/>
                </mxCell>
                <object placeholders="1" c4Name="Sistema Externo QPOS" c4Type="Software System" c4Description="Sistema de facturacion, se optendra informacion sobre clietes, proveedores, preeventas(checkout), productos" label="&lt;font style=&quot;font-size: 16px&quot;&gt;&lt;b&gt;%c4Name%&lt;/b&gt;&lt;/font&gt;&lt;div&gt;[%c4Type%]&lt;/div&gt;&lt;br&gt;&lt;div&gt;&lt;font style=&quot;font-size: 11px&quot;&gt;&lt;font color=&quot;#cccccc&quot;&gt;%c4Description%&lt;/font&gt;&lt;/div&gt;" id="g28K5lVcTVs5DqOu2bSu-1">
                    <mxCell style="rounded=1;whiteSpace=wrap;html=1;labelBackgroundColor=none;fillColor=#8C8496;fontColor=#ffffff;align=center;arcSize=10;strokeColor=#736782;metaEdit=1;resizable=0;points=[[0.25,0,0],[0.5,0,0],[0.75,0,0],[1,0.25,0],[1,0.5,0],[1,0.75,0],[0.75,1,0],[0.5,1,0],[0.25,1,0],[0,0.75,0],[0,0.5,0],[0,0.25,0]];" parent="N2_MCTW6JkcHlk387zwp-1" vertex="1">
                        <mxGeometry x="152" y="-936" width="240" height="120" as="geometry"/>
                    </mxCell>
                </object>
                <mxCell id="g28K5lVcTVs5DqOu2bSu-2" value="Legenda" style="align=left;fontSize=12;fontStyle=1;strokeColor=none;fillColor=none;fontColor=#E6E6E6;spacingTop=-8;resizable=0;rounded=0;shadow=0;labelBackgroundColor=none;labelBorderColor=none;sketch=0;html=1;" parent="N2_MCTW6JkcHlk387zwp-1" vertex="1">
                    <mxGeometry x="-1688" y="-604" width="180" height="30" as="geometry"/>
                </mxCell>
                <mxCell id="g28K5lVcTVs5DqOu2bSu-3" value="" style="shape=table;html=1;whiteSpace=wrap;startSize=0;container=1;collapsible=0;childLayout=tableLayout;fillColor=none;align=left;spacingLeft=10;strokeColor=none;rounded=1;arcSize=11;fontColor=#FFFFFF;resizable=0;points=[[0.25,0,0],[0.5,0,0],[0.75,0,0],[1,0.25,0],[1,0.5,0],[1,0.75,0],[0.75,1,0],[0.5,1,0],[0.25,1,0],[0,0.75,0],[0,0.5,0],[0,0.25,0]];shadow=0;labelBackgroundColor=none;labelBorderColor=none;sketch=0;fontSize=12;" parent="N2_MCTW6JkcHlk387zwp-1" vertex="1">
                    <mxGeometry x="-1688" y="-574" width="180" height="110" as="geometry"/>
                </mxCell>
                <mxCell id="g28K5lVcTVs5DqOu2bSu-4" value="Container" style="shape=partialRectangle;html=1;whiteSpace=wrap;connectable=0;fillColor=#23A2D9;top=0;left=0;bottom=0;right=0;overflow=hidden;pointerEvents=1;align=left;spacingLeft=10;fontColor=#FFFFFF;rounded=0;shadow=0;labelBackgroundColor=none;labelBorderColor=none;sketch=0;fontSize=12;strokeColor=default;strokeWidth=3;" parent="g28K5lVcTVs5DqOu2bSu-3" vertex="1">
                    <mxGeometry width="180" height="30" as="geometry"/>
                </mxCell>
                <mxCell id="1b2HCJQlrRN6rRH2mVZ3-20" value="Component" style="shape=partialRectangle;html=1;whiteSpace=wrap;connectable=0;fillColor=#52A2D8;top=0;left=0;bottom=0;right=0;overflow=hidden;pointerEvents=1;align=left;spacingLeft=10;fontColor=#FFFFFF;rounded=0;shadow=0;labelBackgroundColor=none;labelBorderColor=none;sketch=0;fontSize=12;strokeColor=default;strokeWidth=3;" parent="g28K5lVcTVs5DqOu2bSu-3" vertex="1">
                    <mxGeometry y="30" width="180" height="30" as="geometry"/>
                </mxCell>
                <mxCell id="g28K5lVcTVs5DqOu2bSu-5" value="Base de datos" style="shape=partialRectangle;html=1;whiteSpace=wrap;connectable=0;fillColor=#82B366;top=0;left=0;bottom=0;right=0;overflow=hidden;pointerEvents=1;align=left;spacingLeft=10;fontColor=#FFFFFF;rounded=0;shadow=0;labelBackgroundColor=none;labelBorderColor=none;sketch=0;fontSize=12;strokeColor=default;strokeWidth=3;" parent="g28K5lVcTVs5DqOu2bSu-3" vertex="1">
                    <mxGeometry y="60" width="180" height="20" as="geometry"/>
                </mxCell>
                <mxCell id="g28K5lVcTVs5DqOu2bSu-6" value="External Software System" style="shape=partialRectangle;html=1;whiteSpace=wrap;connectable=0;fillColor=#8B8496;top=0;left=0;bottom=0;right=0;overflow=hidden;pointerEvents=1;align=left;spacingLeft=10;fontColor=#FFFFFF;rounded=0;shadow=0;labelBackgroundColor=none;labelBorderColor=none;sketch=0;fontSize=12;strokeColor=default;strokeWidth=3;" parent="g28K5lVcTVs5DqOu2bSu-3" vertex="1">
                    <mxGeometry y="80" width="180" height="30" as="geometry"/>
                </mxCell>
                <mxCell id="g28K5lVcTVs5DqOu2bSu-7" value="" style="shape=waypoint;sketch=0;size=6;pointerEvents=1;points=[];fillColor=#23A2D9;resizable=0;rotatable=0;perimeter=centerPerimeter;snapToPoint=1;fontSize=11;strokeColor=#0E7DAD;fontColor=#ffffff;rounded=1;labelBackgroundColor=none;arcSize=10;shadow=0;labelBorderColor=none;" parent="N2_MCTW6JkcHlk387zwp-1" vertex="1">
                    <mxGeometry x="56" y="-896" width="40" height="40" as="geometry"/>
                </mxCell>
                <object placeholders="1" c4Name="Aplicacion Web Progresiva (PWA)" c4Type="Container" c4Technology="Java Script, ReactJS" c4Description="Provee todo el funcionamiento para la logistica de bodega y gestion de pedidos" label="&lt;font style=&quot;font-size: 16px&quot;&gt;&lt;b&gt;%c4Name%&lt;/b&gt;&lt;/font&gt;&lt;div&gt;[%c4Type%: %c4Technology%]&lt;/div&gt;&lt;br&gt;&lt;div&gt;&lt;font style=&quot;font-size: 11px&quot;&gt;&lt;font color=&quot;#E6E6E6&quot;&gt;%c4Description%&lt;/font&gt;&lt;/div&gt;" id="g28K5lVcTVs5DqOu2bSu-8">
                    <mxCell style="rounded=1;whiteSpace=wrap;html=1;fontSize=11;labelBackgroundColor=none;fillColor=#23A2D9;fontColor=#ffffff;align=center;arcSize=10;strokeColor=#0E7DAD;metaEdit=1;resizable=0;points=[[0.25,0,0],[0.5,0,0],[0.75,0,0],[1,0.25,0],[1,0.5,0],[1,0.75,0],[0.75,1,0],[0.5,1,0],[0.25,1,0],[0,0.75,0],[0,0.5,0],[0,0.25,0]];shadow=0;labelBorderColor=none;sketch=0;" parent="N2_MCTW6JkcHlk387zwp-1" vertex="1">
                        <mxGeometry x="-1408" y="-1472" width="240" height="120" as="geometry"/>
                    </mxCell>
                </object>
                <object placeholders="1" c4Type="Relationship" c4Technology="JSON/HTTPS" c4Description="Llamada a la API" label="&lt;div style=&quot;text-align: left&quot;&gt;&lt;div style=&quot;text-align: center&quot;&gt;&lt;b&gt;%c4Description%&lt;/b&gt;&lt;/div&gt;&lt;div style=&quot;text-align: center&quot;&gt;[%c4Technology%]&lt;/div&gt;&lt;/div&gt;" id="g28K5lVcTVs5DqOu2bSu-9">
                    <mxCell style="endArrow=blockThin;html=1;fontSize=10;fontColor=#D5E8D4;strokeWidth=3;endFill=1;strokeColor=#d6b656;elbow=vertical;metaEdit=1;endSize=14;startSize=14;jumpStyle=arc;jumpSize=16;rounded=1;edgeStyle=orthogonalEdgeStyle;shadow=0;labelBackgroundColor=none;sketch=0;fillColor=#fff2cc;dashed=1;exitX=0.25;exitY=1;exitDx=0;exitDy=0;exitPerimeter=0;spacingLeft=110;entryX=0.5;entryY=0;entryDx=0;entryDy=0;entryPerimeter=0;" parent="N2_MCTW6JkcHlk387zwp-1" source="g28K5lVcTVs5DqOu2bSu-8" target="g28K5lVcTVs5DqOu2bSu-13" edge="1">
                        <mxGeometry width="240" relative="1" as="geometry">
                            <mxPoint x="-992" y="-920" as="sourcePoint"/>
                            <mxPoint x="-1056" y="-1144" as="targetPoint"/>
                            <Array as="points">
                                <mxPoint x="-1348" y="-1200"/>
                                <mxPoint x="-1344" y="-1200"/>
                                <mxPoint x="-1344" y="-1160"/>
                                <mxPoint x="-1264" y="-1160"/>
                            </Array>
                        </mxGeometry>
                    </mxCell>
                </object>
                <object placeholders="1" c4Name="API Rest Local" c4Type="ContainerScopeBoundary" c4Application="Container" label="&lt;font style=&quot;font-size: 16px&quot;&gt;&lt;b&gt;&lt;div style=&quot;text-align: left&quot;&gt;%c4Name%&lt;/div&gt;&lt;/b&gt;&lt;/font&gt;&lt;div style=&quot;text-align: left&quot;&gt;[%c4Application%]&lt;/div&gt;" id="g28K5lVcTVs5DqOu2bSu-12">
                    <mxCell style="rounded=1;fontSize=11;whiteSpace=wrap;html=1;dashed=1;arcSize=20;fillColor=none;strokeColor=#52A2D8;fontColor=#D5E8D4;labelBackgroundColor=none;align=left;verticalAlign=bottom;labelBorderColor=none;spacingTop=0;spacing=10;dashPattern=8 4;metaEdit=1;rotatable=0;perimeter=rectanglePerimeter;labelPadding=0;allowArrows=0;connectable=0;expand=0;recursiveResize=0;editable=1;pointerEvents=0;absoluteArcSize=1;points=[[0.25,0,0],[0.5,0,0],[0.75,0,0],[1,0.25,0],[1,0.5,0],[1,0.75,0],[0.75,1,0],[0.5,1,0],[0.25,1,0],[0,0.75,0],[0,0.5,0],[0,0.25,0]];shadow=0;sketch=0;strokeWidth=6;" parent="N2_MCTW6JkcHlk387zwp-1" vertex="1">
                        <mxGeometry x="-1456" y="-1136" width="1528" height="672" as="geometry"/>
                    </mxCell>
                </object>
                <object placeholders="1" c4Name="Auth Controller" c4Type="Controlador" c4Technology="NestJS, Rxjs, SSE" c4Description="Permite al usuario autenticarse en el sistema de gestion y logistica" label="&lt;font style=&quot;font-size: 16px&quot;&gt;&lt;b&gt;%c4Name%&lt;/b&gt;&lt;/font&gt;&lt;div&gt;[%c4Type%: %c4Technology%]&lt;/div&gt;&lt;br&gt;&lt;div&gt;&lt;font style=&quot;font-size: 11px&quot;&gt;%c4Description%&lt;/font&gt;&lt;/div&gt;" id="g28K5lVcTVs5DqOu2bSu-13">
                    <mxCell style="rounded=1;whiteSpace=wrap;html=1;labelBackgroundColor=none;fillColor=#63BEF2;fontColor=#ffffff;align=center;arcSize=6;strokeColor=#2086C9;metaEdit=1;resizable=0;points=[[0.25,0,0],[0.5,0,0],[0.75,0,0],[1,0.25,0],[1,0.5,0],[1,0.75,0],[0.75,1,0],[0.5,1,0],[0.25,1,0],[0,0.75,0],[0,0.5,0],[0,0.25,0]];shadow=0;labelBorderColor=none;sketch=0;fontSize=12;" parent="N2_MCTW6JkcHlk387zwp-1" vertex="1">
                        <mxGeometry x="-1384" y="-1088" width="240" height="120" as="geometry"/>
                    </mxCell>
                </object>
                <object placeholders="1" c4Name="Security Component" c4Type="Component" c4Technology="NestJS, Rxjs, SSE" c4Description="Provee funcionalidad  relacionada a registro, cambio de contraseÃ±a, etc." label="&lt;font style=&quot;font-size: 16px&quot;&gt;&lt;b&gt;%c4Name%&lt;/b&gt;&lt;/font&gt;&lt;div&gt;[%c4Type%: %c4Technology%]&lt;/div&gt;&lt;br&gt;&lt;div&gt;&lt;font style=&quot;font-size: 11px&quot;&gt;%c4Description%&lt;/font&gt;&lt;/div&gt;" id="TWeJsPrS2m22JbWfknOP-0">
                    <mxCell style="rounded=1;whiteSpace=wrap;html=1;labelBackgroundColor=none;fillColor=#63BEF2;fontColor=#ffffff;align=center;arcSize=6;strokeColor=#2086C9;metaEdit=1;resizable=0;points=[[0.25,0,0],[0.5,0,0],[0.75,0,0],[1,0.25,0],[1,0.5,0],[1,0.75,0],[0.75,1,0],[0.5,1,0],[0.25,1,0],[0,0.75,0],[0,0.5,0],[0,0.25,0]];shadow=0;labelBorderColor=none;sketch=0;fontSize=12;" parent="N2_MCTW6JkcHlk387zwp-1" vertex="1">
                        <mxGeometry x="-1376" y="-896" width="240" height="120" as="geometry"/>
                    </mxCell>
                </object>
                <object placeholders="1" c4Type="Relationship" c4Description="Usa" label="&lt;div style=&quot;text-align: left; font-size: 20px;&quot;&gt;&lt;div style=&quot;text-align: center; font-size: 20px;&quot;&gt;&lt;b style=&quot;font-size: 20px;&quot;&gt;%c4Description%&lt;/b&gt;&lt;/div&gt;&lt;/div&gt;" id="B5rtIf0JRVs3CchopCW8-0">
                    <mxCell style="endArrow=blockThin;html=1;fontSize=20;fontColor=#D5E8D4;strokeWidth=5;endFill=1;strokeColor=#d6b656;elbow=vertical;metaEdit=1;jumpStyle=arc;jumpSize=16;rounded=1;edgeStyle=orthogonalEdgeStyle;fillColor=#fff2cc;exitX=0.5;exitY=1;exitDx=0;exitDy=0;exitPerimeter=0;labelBackgroundColor=none;spacingLeft=50;shadow=0;sketch=0;spacingTop=0;" parent="N2_MCTW6JkcHlk387zwp-1" source="g28K5lVcTVs5DqOu2bSu-13" edge="1">
                        <mxGeometry width="240" relative="1" as="geometry">
                            <mxPoint x="-1312" y="-1313" as="sourcePoint"/>
                            <mxPoint x="-1264" y="-896" as="targetPoint"/>
                        </mxGeometry>
                    </mxCell>
                </object>
                <object placeholders="1" c4Type="Relationship" c4Technology="JSON/HTTPS" c4Description="Llamada a la API" label="&lt;div style=&quot;text-align: left&quot;&gt;&lt;div style=&quot;text-align: center&quot;&gt;&lt;b&gt;%c4Description%&lt;/b&gt;&lt;/div&gt;&lt;div style=&quot;text-align: center&quot;&gt;[%c4Technology%]&lt;/div&gt;&lt;/div&gt;" id="B5rtIf0JRVs3CchopCW8-3">
                    <mxCell style="endArrow=blockThin;html=1;fontSize=10;fontColor=#D5E8D4;strokeWidth=3;endFill=1;strokeColor=#d6b656;elbow=vertical;metaEdit=1;endSize=14;startSize=14;jumpStyle=arc;jumpSize=16;rounded=1;edgeStyle=orthogonalEdgeStyle;shadow=0;labelBackgroundColor=none;sketch=0;fillColor=#fff2cc;dashed=1;exitX=0.75;exitY=1;exitDx=0;exitDy=0;exitPerimeter=0;spacingLeft=0;spacingBottom=35;" parent="N2_MCTW6JkcHlk387zwp-1" source="g28K5lVcTVs5DqOu2bSu-8" edge="1">
                        <mxGeometry width="240" relative="1" as="geometry">
                            <mxPoint x="-1280" y="-1344" as="sourcePoint"/>
                            <mxPoint x="-988" y="-1096" as="targetPoint"/>
                        </mxGeometry>
                    </mxCell>
                </object>
                <object placeholders="1" c4Type="Relationship" c4Technology="JSON/HTTPS" c4Description="Llamada a la API" label="&lt;div style=&quot;text-align: left&quot;&gt;&lt;div style=&quot;text-align: center&quot;&gt;&lt;b&gt;%c4Description%&lt;/b&gt;&lt;/div&gt;&lt;div style=&quot;text-align: center&quot;&gt;[%c4Technology%]&lt;/div&gt;&lt;/div&gt;" id="B5rtIf0JRVs3CchopCW8-9">
                    <mxCell style="endArrow=blockThin;html=1;fontSize=10;fontColor=#D5E8D4;strokeWidth=3;endFill=1;strokeColor=#d6b656;elbow=vertical;metaEdit=1;endSize=14;startSize=14;jumpStyle=arc;jumpSize=16;rounded=1;edgeStyle=orthogonalEdgeStyle;shadow=0;labelBackgroundColor=none;sketch=0;fillColor=#fff2cc;dashed=1;exitX=1;exitY=0.75;exitDx=0;exitDy=0;exitPerimeter=0;spacingLeft=0;entryX=0.5;entryY=0;entryDx=0;entryDy=0;entryPerimeter=0;spacingBottom=35;" parent="N2_MCTW6JkcHlk387zwp-1" source="g28K5lVcTVs5DqOu2bSu-8" target="1b2HCJQlrRN6rRH2mVZ3-36" edge="1">
                        <mxGeometry width="240" relative="1" as="geometry">
                            <mxPoint x="-1280" y="-1344" as="sourcePoint"/>
                            <mxPoint x="-712" y="-1088" as="targetPoint"/>
                        </mxGeometry>
                    </mxCell>
                </object>
                <object placeholders="1" c4Name="Fachada Sistema Externo" c4Type="Component" c4Technology="NestJS, Rxjs, SSE" c4Description="Una Fachada hacia el sistema externo" label="&lt;font style=&quot;font-size: 16px&quot;&gt;&lt;b&gt;%c4Name%&lt;/b&gt;&lt;/font&gt;&lt;div&gt;[%c4Type%: %c4Technology%]&lt;/div&gt;&lt;br&gt;&lt;div&gt;&lt;font style=&quot;font-size: 11px&quot;&gt;%c4Description%&lt;/font&gt;&lt;/div&gt;" id="B5rtIf0JRVs3CchopCW8-10">
                    <mxCell style="rounded=1;whiteSpace=wrap;html=1;labelBackgroundColor=none;fillColor=#63BEF2;fontColor=#ffffff;align=center;arcSize=6;strokeColor=#2086C9;metaEdit=1;resizable=0;points=[[0.25,0,0],[0.5,0,0],[0.75,0,0],[1,0.25,0],[1,0.5,0],[1,0.75,0],[0.75,1,0],[0.5,1,0],[0.25,1,0],[0,0.75,0],[0,0.5,0],[0,0.25,0]];shadow=0;labelBorderColor=none;sketch=0;fontSize=12;" parent="N2_MCTW6JkcHlk387zwp-1" vertex="1">
                        <mxGeometry x="-384" y="-1048" width="240" height="120" as="geometry"/>
                    </mxCell>
                </object>
                <object placeholders="1" c4Type="Relationship" c4Technology="Formato desconocido" c4Description="Llamada a la API" label="&lt;div style=&quot;text-align: left&quot;&gt;&lt;div style=&quot;text-align: center&quot;&gt;&lt;b&gt;%c4Description%&lt;/b&gt;&lt;/div&gt;&lt;div style=&quot;text-align: center&quot;&gt;[%c4Technology%]&lt;/div&gt;&lt;/div&gt;" id="1b2HCJQlrRN6rRH2mVZ3-0">
                    <mxCell style="endArrow=blockThin;html=1;fontSize=10;fontColor=#D5E8D4;strokeWidth=3;endFill=1;strokeColor=#d6b656;elbow=vertical;metaEdit=1;endSize=14;startSize=14;jumpStyle=arc;jumpSize=16;rounded=1;edgeStyle=orthogonalEdgeStyle;shadow=0;labelBackgroundColor=none;sketch=0;fillColor=#fff2cc;dashed=1;spacingLeft=0;exitX=1;exitY=0.5;exitDx=0;exitDy=0;exitPerimeter=0;spacingBottom=50;" parent="N2_MCTW6JkcHlk387zwp-1" source="B5rtIf0JRVs3CchopCW8-10" target="g28K5lVcTVs5DqOu2bSu-7" edge="1">
                        <mxGeometry width="240" relative="1" as="geometry">
                            <mxPoint x="-744" y="-877" as="sourcePoint"/>
                            <mxPoint x="-644" y="-884" as="targetPoint"/>
                            <Array as="points">
                                <mxPoint x="-68" y="-988"/>
                                <mxPoint x="-68" y="-808"/>
                                <mxPoint x="24" y="-808"/>
                                <mxPoint x="24" y="-876"/>
                            </Array>
                        </mxGeometry>
                    </mxCell>
                </object>
                <object placeholders="1" c4Type="Relationship" c4Description="Usa" label="&lt;div style=&quot;text-align: left; font-size: 20px;&quot;&gt;&lt;div style=&quot;text-align: center; font-size: 20px;&quot;&gt;&lt;b style=&quot;font-size: 20px;&quot;&gt;%c4Description%&lt;/b&gt;&lt;/div&gt;&lt;/div&gt;" id="1b2HCJQlrRN6rRH2mVZ3-2">
                    <mxCell style="endArrow=blockThin;html=1;fontSize=20;fontColor=#D5E8D4;strokeWidth=5;endFill=1;strokeColor=#d6b656;elbow=vertical;metaEdit=1;jumpStyle=arc;jumpSize=16;rounded=1;edgeStyle=orthogonalEdgeStyle;fillColor=#fff2cc;exitX=0.5;exitY=1;exitDx=0;exitDy=0;exitPerimeter=0;labelBackgroundColor=none;spacingLeft=60;shadow=0;sketch=0;spacingTop=0;spacing=0;spacingRight=0;entryX=0.5;entryY=0;entryDx=0;entryDy=0;entryPerimeter=0;spacingBottom=0;" parent="N2_MCTW6JkcHlk387zwp-1" source="1b2HCJQlrRN6rRH2mVZ3-36" target="1b2HCJQlrRN6rRH2mVZ3-41" edge="1">
                        <mxGeometry width="240" relative="1" as="geometry">
                            <mxPoint x="-703.5999999999999" y="-967.7600000000002" as="sourcePoint"/>
                            <mxPoint x="-695.9999999999995" y="-896.0000000000002" as="targetPoint"/>
                        </mxGeometry>
                    </mxCell>
                </object>
                <object placeholders="1" c4Type="Relationship" c4Description="Usa" label="&lt;div style=&quot;text-align: left; font-size: 20px;&quot;&gt;&lt;div style=&quot;text-align: center; font-size: 20px;&quot;&gt;&lt;b style=&quot;font-size: 20px;&quot;&gt;%c4Description%&lt;/b&gt;&lt;/div&gt;&lt;/div&gt;" id="1b2HCJQlrRN6rRH2mVZ3-3">
                    <mxCell style="endArrow=blockThin;html=1;fontSize=20;fontColor=#D5E8D4;strokeWidth=5;endFill=1;strokeColor=#d6b656;elbow=vertical;metaEdit=1;jumpStyle=arc;jumpSize=16;rounded=1;edgeStyle=orthogonalEdgeStyle;fillColor=#fff2cc;labelBackgroundColor=none;spacingLeft=0;shadow=0;sketch=0;spacingTop=30;entryX=0;entryY=0.75;entryDx=0;entryDy=0;entryPerimeter=0;spacing=0;spacingBottom=0;exitX=0.5;exitY=1;exitDx=0;exitDy=0;exitPerimeter=0;" parent="N2_MCTW6JkcHlk387zwp-1" source="1b2HCJQlrRN6rRH2mVZ3-40" target="B5rtIf0JRVs3CchopCW8-10" edge="1">
                        <mxGeometry width="240" relative="1" as="geometry">
                            <mxPoint x="-916" y="-784" as="sourcePoint"/>
                            <mxPoint x="-848" y="-888" as="targetPoint"/>
                            <Array as="points">
                                <mxPoint x="-992" y="-720"/>
                                <mxPoint x="-504" y="-720"/>
                                <mxPoint x="-504" y="-958"/>
                            </Array>
                        </mxGeometry>
                    </mxCell>
                </object>
                <object placeholders="1" c4Type="Relationship" c4Technology="Mongoose" c4Description="Lee y escribre" label="&lt;div style=&quot;text-align: left&quot;&gt;&lt;div style=&quot;text-align: center&quot;&gt;&lt;b&gt;%c4Description%&lt;/b&gt;&lt;/div&gt;&lt;div style=&quot;text-align: center&quot;&gt;[%c4Technology%]&lt;/div&gt;&lt;/div&gt;" id="1b2HCJQlrRN6rRH2mVZ3-6">
                    <mxCell style="endArrow=blockThin;html=1;fontSize=10;fontColor=#D5E8D4;strokeWidth=3;endFill=1;strokeColor=#d6b656;elbow=vertical;metaEdit=1;endSize=14;startSize=14;jumpStyle=arc;jumpSize=16;rounded=1;edgeStyle=orthogonalEdgeStyle;shadow=0;labelBackgroundColor=none;sketch=0;fillColor=#fff2cc;dashed=1;spacingLeft=110;exitX=0.5;exitY=1;exitDx=0;exitDy=0;exitPerimeter=0;entryX=0.5;entryY=0;entryDx=0;entryDy=0;entryPerimeter=0;spacingBottom=-26;spacingRight=-80;" parent="N2_MCTW6JkcHlk387zwp-1" source="1b2HCJQlrRN6rRH2mVZ3-14" target="ag1yC355jWqF1oFDY80I-0" edge="1">
                        <mxGeometry x="-0.2667" width="240" relative="1" as="geometry">
                            <mxPoint x="-1256.0000000000002" y="-456" as="sourcePoint"/>
                            <mxPoint x="-1264" y="-360" as="targetPoint"/>
                            <mxPoint as="offset"/>
                        </mxGeometry>
                    </mxCell>
                </object>
                <object placeholders="1" c4Type="Relationship" c4Description="Usa" label="&lt;div style=&quot;text-align: left; font-size: 20px;&quot;&gt;&lt;div style=&quot;text-align: center; font-size: 20px;&quot;&gt;&lt;b style=&quot;font-size: 20px;&quot;&gt;%c4Description%&lt;/b&gt;&lt;/div&gt;&lt;/div&gt;" id="1b2HCJQlrRN6rRH2mVZ3-13">
                    <mxCell style="endArrow=blockThin;html=1;fontSize=20;fontColor=#D5E8D4;strokeWidth=5;endFill=1;strokeColor=#d6b656;elbow=vertical;metaEdit=1;jumpStyle=arc;jumpSize=16;rounded=1;edgeStyle=orthogonalEdgeStyle;fillColor=#fff2cc;labelBackgroundColor=none;spacingLeft=55;shadow=0;sketch=0;spacingTop=0;entryX=0.5;entryY=0;entryDx=0;entryDy=0;entryPerimeter=0;spacing=0;spacingBottom=0;exitX=0.5;exitY=1;exitDx=0;exitDy=0;exitPerimeter=0;" parent="N2_MCTW6JkcHlk387zwp-1" source="1b2HCJQlrRN6rRH2mVZ3-37" target="1b2HCJQlrRN6rRH2mVZ3-40" edge="1">
                        <mxGeometry width="240" relative="1" as="geometry">
                            <mxPoint x="-988" y="-968" as="sourcePoint"/>
                            <mxPoint x="-976" y="-896.0000000000002" as="targetPoint"/>
                        </mxGeometry>
                    </mxCell>
                </object>
                <object placeholders="1" c4Name="Repositorio" c4Type="Component" c4Technology="Spring  MVC : Repositorio" c4Description="Lee y escribe en la base de datos" label="&lt;font style=&quot;font-size: 16px&quot;&gt;&lt;b&gt;%c4Name%&lt;/b&gt;&lt;/font&gt;&lt;div&gt;[%c4Type%: %c4Technology%]&lt;/div&gt;&lt;br&gt;&lt;div&gt;&lt;font style=&quot;font-size: 11px&quot;&gt;%c4Description%&lt;/font&gt;&lt;/div&gt;" id="1b2HCJQlrRN6rRH2mVZ3-14">
                    <mxCell style="rounded=1;whiteSpace=wrap;html=1;labelBackgroundColor=none;fillColor=#63BEF2;fontColor=#ffffff;align=center;arcSize=6;strokeColor=#2086C9;metaEdit=1;resizable=0;points=[[0.25,0,0],[0.5,0,0],[0.75,0,0],[1,0.25,0],[1,0.5,0],[1,0.75,0],[0.75,1,0],[0.5,1,0],[0.25,1,0],[0,0.75,0],[0,0.5,0],[0,0.25,0]];shadow=0;labelBorderColor=none;sketch=0;fontSize=12;" parent="N2_MCTW6JkcHlk387zwp-1" vertex="1">
                        <mxGeometry x="-1384" y="-640" width="240" height="120" as="geometry"/>
                    </mxCell>
                </object>
                <object placeholders="1" c4Type="Relationship" c4Description="Usa" label="&lt;div style=&quot;text-align: left; font-size: 20px;&quot;&gt;&lt;div style=&quot;text-align: center; font-size: 20px;&quot;&gt;&lt;b style=&quot;font-size: 20px;&quot;&gt;%c4Description%&lt;/b&gt;&lt;/div&gt;&lt;/div&gt;" id="1b2HCJQlrRN6rRH2mVZ3-23">
                    <mxCell style="endArrow=blockThin;html=1;fontSize=20;fontColor=#D5E8D4;strokeWidth=5;endFill=1;strokeColor=#d6b656;elbow=vertical;metaEdit=1;jumpStyle=arc;jumpSize=16;rounded=1;edgeStyle=orthogonalEdgeStyle;fillColor=#fff2cc;exitX=1;exitY=0.5;exitDx=0;exitDy=0;exitPerimeter=0;labelBackgroundColor=none;spacingLeft=50;shadow=0;sketch=0;spacingTop=0;entryX=0;entryY=0.25;entryDx=0;entryDy=0;entryPerimeter=0;spacing=0;spacingBottom=0;" parent="N2_MCTW6JkcHlk387zwp-1" source="1b2HCJQlrRN6rRH2mVZ3-41" target="B5rtIf0JRVs3CchopCW8-10" edge="1">
                        <mxGeometry width="240" relative="1" as="geometry">
                            <mxPoint x="-576" y="-836.0000000000002" as="sourcePoint"/>
                            <mxPoint x="-744" y="-844" as="targetPoint"/>
                        </mxGeometry>
                    </mxCell>
                </object>
                <object placeholders="1" c4Type="Relationship" c4Description="Usa" label="&lt;div style=&quot;text-align: left; font-size: 20px;&quot;&gt;&lt;div style=&quot;text-align: center; font-size: 20px;&quot;&gt;&lt;b style=&quot;font-size: 20px;&quot;&gt;%c4Description%&lt;/b&gt;&lt;/div&gt;&lt;/div&gt;" id="1b2HCJQlrRN6rRH2mVZ3-24">
                    <mxCell style="endArrow=blockThin;html=1;fontSize=20;fontColor=#D5E8D4;strokeWidth=5;endFill=1;strokeColor=#d6b656;elbow=vertical;metaEdit=1;jumpStyle=arc;jumpSize=16;rounded=1;edgeStyle=orthogonalEdgeStyle;fillColor=#fff2cc;exitX=0.25;exitY=1;exitDx=0;exitDy=0;exitPerimeter=0;labelBackgroundColor=none;spacingLeft=0;shadow=0;sketch=0;spacingTop=0;entryX=0.5;entryY=0;entryDx=0;entryDy=0;entryPerimeter=0;spacing=0;spacingBottom=35;" parent="N2_MCTW6JkcHlk387zwp-1" source="1b2HCJQlrRN6rRH2mVZ3-40" target="1b2HCJQlrRN6rRH2mVZ3-14" edge="1">
                        <mxGeometry width="240" relative="1" as="geometry">
                            <mxPoint x="-976" y="-776.0000000000002" as="sourcePoint"/>
                            <mxPoint x="-744" y="-796" as="targetPoint"/>
                        </mxGeometry>
                    </mxCell>
                </object>
                <object placeholders="1" c4Type="Relationship" c4Description="Usa" label="&lt;div style=&quot;text-align: left; font-size: 20px;&quot;&gt;&lt;div style=&quot;text-align: center; font-size: 20px;&quot;&gt;&lt;b style=&quot;font-size: 20px;&quot;&gt;%c4Description%&lt;/b&gt;&lt;/div&gt;&lt;/div&gt;" id="1b2HCJQlrRN6rRH2mVZ3-25">
                    <mxCell style="endArrow=blockThin;html=1;fontSize=20;fontColor=#D5E8D4;strokeWidth=5;endFill=1;strokeColor=#d6b656;elbow=vertical;metaEdit=1;jumpStyle=arc;jumpSize=16;rounded=1;edgeStyle=orthogonalEdgeStyle;fillColor=#fff2cc;exitX=0.25;exitY=1;exitDx=0;exitDy=0;exitPerimeter=0;labelBackgroundColor=none;spacingLeft=0;shadow=0;sketch=0;spacingTop=0;spacing=0;spacingBottom=35;entryX=1;entryY=0.25;entryDx=0;entryDy=0;entryPerimeter=0;" parent="N2_MCTW6JkcHlk387zwp-1" source="1b2HCJQlrRN6rRH2mVZ3-41" target="1b2HCJQlrRN6rRH2mVZ3-14" edge="1">
                        <mxGeometry width="240" relative="1" as="geometry">
                            <mxPoint x="-696" y="-776.0000000000002" as="sourcePoint"/>
                            <mxPoint x="-824" y="-552" as="targetPoint"/>
                        </mxGeometry>
                    </mxCell>
                </object>
                <object placeholders="1" c4Name="Customer Service" c4Type="Component" c4Technology="NestJS, Rxjs, SSE" c4Description="Obtiene informacion de api externa" label="&lt;font style=&quot;font-size: 16px&quot;&gt;&lt;b&gt;%c4Name%&lt;/b&gt;&lt;/font&gt;&lt;div&gt;[%c4Type%: %c4Technology%]&lt;/div&gt;&lt;br&gt;&lt;div&gt;&lt;font style=&quot;font-size: 11px&quot;&gt;%c4Description%&lt;/font&gt;&lt;/div&gt;" id="1b2HCJQlrRN6rRH2mVZ3-27">
                    <mxCell style="rounded=1;whiteSpace=wrap;html=1;labelBackgroundColor=none;fillColor=#63BEF2;fontColor=#ffffff;align=center;arcSize=6;strokeColor=#2086C9;metaEdit=1;resizable=0;points=[[0.25,0,0],[0.5,0,0],[0.75,0,0],[1,0.25,0],[1,0.5,0],[1,0.75,0],[0.75,1,0],[0.5,1,0],[0.25,1,0],[0,0.75,0],[0,0.5,0],[0,0.25,0]];shadow=0;labelBorderColor=none;sketch=0;fontSize=12;" parent="N2_MCTW6JkcHlk387zwp-1" vertex="1">
                        <mxGeometry x="-672" y="-694" width="240" height="120" as="geometry"/>
                    </mxCell>
                </object>
                <object placeholders="1" c4Name="Deliver Service" c4Type="Component" c4Technology="NestJS, Rxjs, SSE" c4Description="Obtiene informacion de api externa" label="&lt;font style=&quot;font-size: 16px&quot;&gt;&lt;b&gt;%c4Name%&lt;/b&gt;&lt;/font&gt;&lt;div&gt;[%c4Type%: %c4Technology%]&lt;/div&gt;&lt;br&gt;&lt;div&gt;&lt;font style=&quot;font-size: 11px&quot;&gt;%c4Description%&lt;/font&gt;&lt;/div&gt;" id="1b2HCJQlrRN6rRH2mVZ3-28">
                    <mxCell style="rounded=1;whiteSpace=wrap;html=1;labelBackgroundColor=none;fillColor=#63BEF2;fontColor=#ffffff;align=center;arcSize=6;strokeColor=#2086C9;metaEdit=1;resizable=0;points=[[0.25,0,0],[0.5,0,0],[0.75,0,0],[1,0.25,0],[1,0.5,0],[1,0.75,0],[0.75,1,0],[0.5,1,0],[0.25,1,0],[0,0.75,0],[0,0.5,0],[0,0.25,0]];shadow=0;labelBorderColor=none;sketch=0;fontSize=12;" parent="N2_MCTW6JkcHlk387zwp-1" vertex="1">
                        <mxGeometry x="-384" y="-694" width="240" height="120" as="geometry"/>
                    </mxCell>
                </object>
                <object placeholders="1" c4Type="Relationship" c4Description="Usa" label="&lt;div style=&quot;text-align: left; font-size: 20px;&quot;&gt;&lt;div style=&quot;text-align: center; font-size: 20px;&quot;&gt;&lt;b style=&quot;font-size: 20px;&quot;&gt;%c4Description%&lt;/b&gt;&lt;/div&gt;&lt;/div&gt;" id="1b2HCJQlrRN6rRH2mVZ3-29">
                    <mxCell style="endArrow=blockThin;html=1;fontSize=20;fontColor=#D5E8D4;strokeWidth=5;endFill=1;strokeColor=#d6b656;elbow=vertical;metaEdit=1;jumpStyle=arc;jumpSize=16;rounded=1;edgeStyle=orthogonalEdgeStyle;fillColor=#fff2cc;exitX=1;exitY=0.5;exitDx=0;exitDy=0;exitPerimeter=0;labelBackgroundColor=none;spacingLeft=50;shadow=0;sketch=0;spacingTop=0;entryX=0.25;entryY=1;entryDx=0;entryDy=0;entryPerimeter=0;spacing=0;spacingBottom=0;" parent="N2_MCTW6JkcHlk387zwp-1" source="1b2HCJQlrRN6rRH2mVZ3-27" target="B5rtIf0JRVs3CchopCW8-10" edge="1">
                        <mxGeometry width="240" relative="1" as="geometry">
                            <mxPoint x="-568" y="-828" as="sourcePoint"/>
                            <mxPoint x="-240" y="-722" as="targetPoint"/>
                            <Array as="points">
                                <mxPoint x="-416" y="-634"/>
                                <mxPoint x="-416" y="-904"/>
                                <mxPoint x="-324" y="-904"/>
                            </Array>
                        </mxGeometry>
                    </mxCell>
                </object>
                <object placeholders="1" c4Type="Relationship" c4Description="Usa" label="&lt;div style=&quot;text-align: left; font-size: 20px;&quot;&gt;&lt;div style=&quot;text-align: center; font-size: 20px;&quot;&gt;&lt;b style=&quot;font-size: 20px;&quot;&gt;%c4Description%&lt;/b&gt;&lt;/div&gt;&lt;/div&gt;" id="1b2HCJQlrRN6rRH2mVZ3-30">
                    <mxCell style="endArrow=blockThin;html=1;fontSize=20;fontColor=#D5E8D4;strokeWidth=5;endFill=1;strokeColor=#d6b656;elbow=vertical;metaEdit=1;jumpStyle=arc;jumpSize=16;rounded=1;edgeStyle=orthogonalEdgeStyle;fillColor=#fff2cc;exitX=0.5;exitY=1;exitDx=0;exitDy=0;exitPerimeter=0;labelBackgroundColor=none;spacingLeft=0;shadow=0;sketch=0;spacingTop=0;entryX=1;entryY=0.5;entryDx=0;entryDy=0;entryPerimeter=0;spacing=0;spacingBottom=35;" parent="N2_MCTW6JkcHlk387zwp-1" source="1b2HCJQlrRN6rRH2mVZ3-27" target="1b2HCJQlrRN6rRH2mVZ3-14" edge="1">
                        <mxGeometry width="240" relative="1" as="geometry">
                            <mxPoint x="-364" y="-960" as="sourcePoint"/>
                            <mxPoint x="-180" y="-752" as="targetPoint"/>
                            <Array as="points">
                                <mxPoint x="-552" y="-544"/>
                                <mxPoint x="-908" y="-544"/>
                                <mxPoint x="-908" y="-580"/>
                            </Array>
                        </mxGeometry>
                    </mxCell>
                </object>
                <object placeholders="1" c4Type="Relationship" c4Description="Usa" label="&lt;div style=&quot;text-align: left; font-size: 20px;&quot;&gt;&lt;div style=&quot;text-align: center; font-size: 20px;&quot;&gt;&lt;b style=&quot;font-size: 20px;&quot;&gt;%c4Description%&lt;/b&gt;&lt;/div&gt;&lt;/div&gt;" id="1b2HCJQlrRN6rRH2mVZ3-31">
                    <mxCell style="endArrow=blockThin;html=1;fontSize=20;fontColor=#D5E8D4;strokeWidth=5;endFill=1;strokeColor=#d6b656;elbow=vertical;metaEdit=1;jumpStyle=arc;jumpSize=16;rounded=1;edgeStyle=orthogonalEdgeStyle;fillColor=#fff2cc;exitX=0.5;exitY=0;exitDx=0;exitDy=0;exitPerimeter=0;labelBackgroundColor=none;spacingLeft=50;shadow=0;sketch=0;spacingTop=0;entryX=0.5;entryY=1;entryDx=0;entryDy=0;entryPerimeter=0;spacing=0;spacingBottom=0;" parent="N2_MCTW6JkcHlk387zwp-1" source="1b2HCJQlrRN6rRH2mVZ3-28" target="B5rtIf0JRVs3CchopCW8-10" edge="1">
                        <mxGeometry width="240" relative="1" as="geometry">
                            <mxPoint x="-364" y="-960" as="sourcePoint"/>
                            <mxPoint x="-180" y="-752" as="targetPoint"/>
                        </mxGeometry>
                    </mxCell>
                </object>
                <object placeholders="1" c4Type="Relationship" c4Description="Usa" label="&lt;div style=&quot;text-align: left; font-size: 20px;&quot;&gt;&lt;div style=&quot;text-align: center; font-size: 20px;&quot;&gt;&lt;b style=&quot;font-size: 20px;&quot;&gt;%c4Description%&lt;/b&gt;&lt;/div&gt;&lt;/div&gt;" id="1b2HCJQlrRN6rRH2mVZ3-33">
                    <mxCell style="endArrow=blockThin;html=1;fontSize=20;fontColor=#D5E8D4;strokeWidth=5;endFill=1;strokeColor=#d6b656;elbow=vertical;metaEdit=1;jumpStyle=arc;jumpSize=16;rounded=1;edgeStyle=orthogonalEdgeStyle;fillColor=#fff2cc;exitX=0.25;exitY=1;exitDx=0;exitDy=0;exitPerimeter=0;labelBackgroundColor=none;spacingLeft=0;shadow=0;sketch=0;spacingTop=0;spacing=0;spacingBottom=35;entryX=1;entryY=0.75;entryDx=0;entryDy=0;entryPerimeter=0;" parent="N2_MCTW6JkcHlk387zwp-1" source="1b2HCJQlrRN6rRH2mVZ3-28" target="1b2HCJQlrRN6rRH2mVZ3-14" edge="1">
                        <mxGeometry width="240" relative="1" as="geometry">
                            <mxPoint x="-472" y="-560" as="sourcePoint"/>
                            <mxPoint x="-896" y="-528" as="targetPoint"/>
                            <Array as="points">
                                <mxPoint x="-324" y="-512"/>
                                <mxPoint x="-1096" y="-512"/>
                                <mxPoint x="-1096" y="-550"/>
                            </Array>
                        </mxGeometry>
                    </mxCell>
                </object>
                <object placeholders="1" c4Type="Relationship" c4Description="Usa" label="&lt;div style=&quot;text-align: left; font-size: 20px;&quot;&gt;&lt;div style=&quot;text-align: center; font-size: 20px;&quot;&gt;&lt;b style=&quot;font-size: 20px;&quot;&gt;%c4Description%&lt;/b&gt;&lt;/div&gt;&lt;/div&gt;" id="1b2HCJQlrRN6rRH2mVZ3-34">
                    <mxCell style="endArrow=blockThin;html=1;fontSize=20;fontColor=#D5E8D4;strokeWidth=5;endFill=1;strokeColor=#d6b656;elbow=vertical;metaEdit=1;jumpStyle=arc;jumpSize=16;rounded=1;edgeStyle=orthogonalEdgeStyle;fillColor=#fff2cc;exitX=1;exitY=0.5;exitDx=0;exitDy=0;exitPerimeter=0;labelBackgroundColor=none;spacingLeft=30;shadow=0;sketch=0;spacingTop=0;spacing=0;spacingRight=0;entryX=0.25;entryY=0;entryDx=0;entryDy=0;entryPerimeter=0;spacingBottom=50;" parent="N2_MCTW6JkcHlk387zwp-1" source="1b2HCJQlrRN6rRH2mVZ3-40" target="1b2HCJQlrRN6rRH2mVZ3-41" edge="1">
                        <mxGeometry width="240" relative="1" as="geometry">
                            <mxPoint x="-756" y="-896.0000000000002" as="sourcePoint"/>
                            <mxPoint x="-856" y="-836.0000000000002" as="targetPoint"/>
                            <Array as="points">
                                <mxPoint x="-844" y="-844"/>
                                <mxPoint x="-844" y="-928"/>
                                <mxPoint x="-756" y="-928"/>
                            </Array>
                        </mxGeometry>
                    </mxCell>
                </object>
                <object placeholders="1" c4Type="Relationship" c4Description="Usa" label="&lt;div style=&quot;text-align: left; font-size: 20px;&quot;&gt;&lt;div style=&quot;text-align: center; font-size: 20px;&quot;&gt;&lt;b style=&quot;font-size: 20px;&quot;&gt;%c4Description%&lt;/b&gt;&lt;/div&gt;&lt;/div&gt;" id="1b2HCJQlrRN6rRH2mVZ3-35">
                    <mxCell style="endArrow=blockThin;html=1;fontSize=20;fontColor=#D5E8D4;strokeWidth=5;endFill=1;strokeColor=#d6b656;elbow=vertical;metaEdit=1;jumpStyle=arc;jumpSize=16;rounded=1;edgeStyle=orthogonalEdgeStyle;fillColor=#fff2cc;exitX=0.822;exitY=1.003;exitDx=0;exitDy=0;exitPerimeter=0;labelBackgroundColor=none;spacingLeft=0;shadow=0;sketch=0;spacingTop=0;spacing=0;spacingRight=0;entryX=0;entryY=0.25;entryDx=0;entryDy=0;entryPerimeter=0;spacingBottom=35;" parent="N2_MCTW6JkcHlk387zwp-1" source="1b2HCJQlrRN6rRH2mVZ3-40" target="1b2HCJQlrRN6rRH2mVZ3-27" edge="1">
                        <mxGeometry width="240" relative="1" as="geometry">
                            <mxPoint x="-576" y="-806.0000000000002" as="sourcePoint"/>
                            <mxPoint x="-680.0000000000005" y="-880" as="targetPoint"/>
                        </mxGeometry>
                    </mxCell>
                </object>
                <object placeholders="1" c4Name="Product Controller" c4Type="Component" c4Technology="NestJS, Rxjs, SSE" c4Description="Provee resumen de los productos" label="&lt;font style=&quot;font-size: 16px&quot;&gt;&lt;b&gt;%c4Name%&lt;/b&gt;&lt;/font&gt;&lt;div&gt;[%c4Type%: %c4Technology%]&lt;/div&gt;&lt;br&gt;&lt;div&gt;&lt;font style=&quot;font-size: 11px&quot;&gt;%c4Description%&lt;/font&gt;&lt;/div&gt;" id="1b2HCJQlrRN6rRH2mVZ3-36">
                    <mxCell style="rounded=1;whiteSpace=wrap;html=1;labelBackgroundColor=none;fillColor=#63BEF2;fontColor=#ffffff;align=center;arcSize=6;strokeColor=#2086C9;metaEdit=1;resizable=0;points=[[0.25,0,0],[0.5,0,0],[0.75,0,0],[1,0.25,0],[1,0.5,0],[1,0.75,0],[0.75,1,0],[0.5,1,0],[0.25,1,0],[0,0.75,0],[0,0.5,0],[0,0.25,0]];shadow=0;labelBorderColor=none;sketch=0;fontSize=12;" parent="N2_MCTW6JkcHlk387zwp-1" vertex="1">
                        <mxGeometry x="-832" y="-1088" width="240" height="120" as="geometry"/>
                    </mxCell>
                </object>
                <object placeholders="1" c4Name="Order Controller" c4Type="Component" c4Technology="NestJS, Rxjs, SSE" c4Description="Provee lista de pedidos" label="&lt;font style=&quot;font-size: 16px&quot;&gt;&lt;b&gt;%c4Name%&lt;/b&gt;&lt;/font&gt;&lt;div&gt;[%c4Type%: %c4Technology%]&lt;/div&gt;&lt;br&gt;&lt;div&gt;&lt;font style=&quot;font-size: 11px&quot;&gt;%c4Description%&lt;/font&gt;&lt;/div&gt;" id="1b2HCJQlrRN6rRH2mVZ3-37">
                    <mxCell style="rounded=1;whiteSpace=wrap;html=1;labelBackgroundColor=none;fillColor=#63BEF2;fontColor=#ffffff;align=center;arcSize=6;strokeColor=#2086C9;metaEdit=1;resizable=0;points=[[0.25,0,0],[0.5,0,0],[0.75,0,0],[1,0.25,0],[1,0.5,0],[1,0.75,0],[0.75,1,0],[0.5,1,0],[0.25,1,0],[0,0.75,0],[0,0.5,0],[0,0.25,0]];shadow=0;labelBorderColor=none;sketch=0;fontSize=12;" parent="N2_MCTW6JkcHlk387zwp-1" vertex="1">
                        <mxGeometry x="-1112" y="-1088" width="240" height="120" as="geometry"/>
                    </mxCell>
                </object>
                <object placeholders="1" c4Name="Order Service" c4Type="Component" c4Technology="NestJS, Rxjs, SSE" c4Description="Obtiene informacion de api externa" label="&lt;font style=&quot;font-size: 16px&quot;&gt;&lt;b&gt;%c4Name%&lt;/b&gt;&lt;/font&gt;&lt;div&gt;[%c4Type%: %c4Technology%]&lt;/div&gt;&lt;br&gt;&lt;div&gt;&lt;font style=&quot;font-size: 11px&quot;&gt;%c4Description%&lt;/font&gt;&lt;/div&gt;" id="1b2HCJQlrRN6rRH2mVZ3-40">
                    <mxCell style="rounded=1;whiteSpace=wrap;html=1;labelBackgroundColor=none;fillColor=#63BEF2;fontColor=#ffffff;align=center;arcSize=6;strokeColor=#2086C9;metaEdit=1;resizable=0;points=[[0.25,0,0],[0.5,0,0],[0.75,0,0],[1,0.25,0],[1,0.5,0],[1,0.75,0],[0.75,1,0],[0.5,1,0],[0.25,1,0],[0,0.75,0],[0,0.5,0],[0,0.25,0]];shadow=0;labelBorderColor=none;sketch=0;fontSize=12;" parent="N2_MCTW6JkcHlk387zwp-1" vertex="1">
                        <mxGeometry x="-1112" y="-904" width="240" height="120" as="geometry"/>
                    </mxCell>
                </object>
                <object placeholders="1" c4Name="Product Service" c4Type="Component" c4Technology="NestJS, Rxjs, SSE" c4Description="Obtiene informacion de api externa" label="&lt;font style=&quot;font-size: 16px&quot;&gt;&lt;b&gt;%c4Name%&lt;/b&gt;&lt;/font&gt;&lt;div&gt;[%c4Type%: %c4Technology%]&lt;/div&gt;&lt;br&gt;&lt;div&gt;&lt;font style=&quot;font-size: 11px&quot;&gt;%c4Description%&lt;/font&gt;&lt;/div&gt;" id="1b2HCJQlrRN6rRH2mVZ3-41">
                    <mxCell style="rounded=1;whiteSpace=wrap;html=1;labelBackgroundColor=none;fillColor=#63BEF2;fontColor=#ffffff;align=center;arcSize=6;strokeColor=#2086C9;metaEdit=1;resizable=0;points=[[0.25,0,0],[0.5,0,0],[0.75,0,0],[1,0.25,0],[1,0.5,0],[1,0.75,0],[0.75,1,0],[0.5,1,0],[0.25,1,0],[0,0.75,0],[0,0.5,0],[0,0.25,0]];shadow=0;labelBorderColor=none;sketch=0;fontSize=12;" parent="N2_MCTW6JkcHlk387zwp-1" vertex="1">
                        <mxGeometry x="-816" y="-896" width="240" height="120" as="geometry"/>
                    </mxCell>
                </object>
                <object placeholders="1" c4Type="Relationship" c4Description="Usa" label="&lt;div style=&quot;text-align: left; font-size: 20px;&quot;&gt;&lt;div style=&quot;text-align: center; font-size: 20px;&quot;&gt;&lt;b style=&quot;font-size: 20px;&quot;&gt;%c4Description%&lt;/b&gt;&lt;/div&gt;&lt;/div&gt;" id="1b2HCJQlrRN6rRH2mVZ3-42">
                    <mxCell style="endArrow=blockThin;html=1;fontSize=20;fontColor=#D5E8D4;strokeWidth=5;endFill=1;strokeColor=#d6b656;elbow=vertical;metaEdit=1;jumpStyle=arc;jumpSize=16;rounded=1;edgeStyle=orthogonalEdgeStyle;fillColor=#fff2cc;labelBackgroundColor=none;spacingLeft=50;shadow=0;sketch=0;spacingTop=0;spacing=0;spacingBottom=35;exitX=0.75;exitY=1;exitDx=0;exitDy=0;exitPerimeter=0;" parent="N2_MCTW6JkcHlk387zwp-1" source="1b2HCJQlrRN6rRH2mVZ3-41" edge="1">
                        <mxGeometry width="240" relative="1" as="geometry">
                            <mxPoint x="-568" y="-768" as="sourcePoint"/>
                            <mxPoint x="-328" y="-696" as="targetPoint"/>
                        </mxGeometry>
                    </mxCell>
                </object>
                <object placeholders="1" c4Type="Relationship" c4Description="Usa" label="&lt;div style=&quot;text-align: left; font-size: 20px;&quot;&gt;&lt;div style=&quot;text-align: center; font-size: 20px;&quot;&gt;&lt;b style=&quot;font-size: 20px;&quot;&gt;%c4Description%&lt;/b&gt;&lt;/div&gt;&lt;/div&gt;" id="-RklumYK5SOrjbIcEMQ4-0">
                    <mxCell style="endArrow=blockThin;html=1;fontSize=20;fontColor=#D5E8D4;strokeWidth=5;endFill=1;strokeColor=#d6b656;elbow=vertical;metaEdit=1;jumpStyle=arc;jumpSize=16;rounded=1;edgeStyle=orthogonalEdgeStyle;fillColor=#fff2cc;exitX=0.25;exitY=1;exitDx=0;exitDy=0;exitPerimeter=0;labelBackgroundColor=none;spacingLeft=0;shadow=0;sketch=0;spacingTop=0;entryX=0.25;entryY=0;entryDx=0;entryDy=0;entryPerimeter=0;spacing=0;spacingBottom=0;spacingRight=55;" parent="N2_MCTW6JkcHlk387zwp-1" source="TWeJsPrS2m22JbWfknOP-0" target="1b2HCJQlrRN6rRH2mVZ3-14" edge="1">
                        <mxGeometry width="240" relative="1" as="geometry">
                            <mxPoint x="-1044" y="-776" as="sourcePoint"/>
                            <mxPoint x="-1256" y="-632" as="targetPoint"/>
                        </mxGeometry>
                    </mxCell>
                </object>
                <object placeholders="1" c4Name="Repositorio" c4Type="Component" c4Technology="NestJS, Rxjs, SSE, Mongoose" c4Description="Lee y escribe en la base de datos" label="&lt;font style=&quot;font-size: 16px&quot;&gt;&lt;b&gt;%c4Name%&lt;/b&gt;&lt;/font&gt;&lt;div&gt;[%c4Type%: %c4Technology%]&lt;/div&gt;&lt;br&gt;&lt;div&gt;&lt;font style=&quot;font-size: 11px&quot;&gt;%c4Description%&lt;/font&gt;&lt;/div&gt;" id="CT6FW4h_J5tolfNTOpEr-0">
                    <mxCell style="rounded=1;whiteSpace=wrap;html=1;labelBackgroundColor=none;fillColor=#63BEF2;fontColor=#ffffff;align=center;arcSize=6;strokeColor=#2086C9;metaEdit=1;resizable=0;points=[[0.25,0,0],[0.5,0,0],[0.75,0,0],[1,0.25,0],[1,0.5,0],[1,0.75,0],[0.75,1,0],[0.5,1,0],[0.25,1,0],[0,0.75,0],[0,0.5,0],[0,0.25,0]];shadow=0;labelBorderColor=none;sketch=0;fontSize=12;" parent="N2_MCTW6JkcHlk387zwp-1" vertex="1">
                        <mxGeometry x="-1400" y="-632" width="240" height="120" as="geometry"/>
                    </mxCell>
                </object>
                <object placeholders="1" c4Type="NoSQL" c4Container="blogistica_db" c4Technology="MongoDB Reactivo" c4Description="Guarda informaciÃ³n de usuarios, clientes, proveedores, productos, pedidos." label="&lt;font style=&quot;font-size: 16px&quot;&gt;&lt;b&gt;%c4Type%&lt;/font&gt;&lt;div&gt;[%c4Container%:&amp;nbsp;%c4Technology%]&lt;/div&gt;&lt;br&gt;&lt;div&gt;&lt;font style=&quot;font-size: 11px&quot;&gt;&lt;font color=&quot;#E6E6E6&quot;&gt;%c4Description%&lt;/font&gt;&lt;/div&gt;" id="ag1yC355jWqF1oFDY80I-0">
                    <mxCell style="shape=cylinder3;size=15;whiteSpace=wrap;html=1;boundedLbl=1;rounded=0;labelBackgroundColor=none;fillColor=#23A2D9;fontSize=12;fontColor=#ffffff;align=center;strokeColor=#0E7DAD;metaEdit=1;points=[[0.5,0,0],[1,0.25,0],[1,0.5,0],[1,0.75,0],[0.5,1,0],[0,0.75,0],[0,0.5,0],[0,0.25,0]];resizable=0;shadow=0;labelBorderColor=none;sketch=0;" parent="N2_MCTW6JkcHlk387zwp-1" vertex="1">
                        <mxGeometry x="-1384" y="-352" width="240" height="120" as="geometry"/>
                    </mxCell>
                </object>
            </root>
        </mxGraphModel>
    </diagram>
    <diagram name="Componente: Aplicacion Web Progresiva (PWA)" id="1GN988giP8YwMJfVogqv">
        <mxGraphModel dx="2928" dy="2733" grid="1" gridSize="8" guides="1" tooltips="1" connect="1" arrows="1" fold="1" page="0" pageScale="1" pageWidth="1200" pageHeight="1920" background="#333333" math="0" shadow="0">
            <root>
                <mxCell id="3RHmT__N5yNQgqtIp_2Z-0"/>
                <mxCell id="3RHmT__N5yNQgqtIp_2Z-1" parent="3RHmT__N5yNQgqtIp_2Z-0"/>
                <mxCell id="3RHmT__N5yNQgqtIp_2Z-4" value="Legenda" style="align=left;fontSize=12;fontStyle=1;strokeColor=none;fillColor=none;fontColor=#E6E6E6;spacingTop=-8;resizable=0;rounded=0;shadow=0;labelBackgroundColor=none;labelBorderColor=none;sketch=0;html=1;" parent="3RHmT__N5yNQgqtIp_2Z-1" vertex="1">
                    <mxGeometry x="-1688" y="-604" width="180" height="30" as="geometry"/>
                </mxCell>
                <mxCell id="3RHmT__N5yNQgqtIp_2Z-5" value="" style="shape=table;html=1;whiteSpace=wrap;startSize=0;container=1;collapsible=0;childLayout=tableLayout;fillColor=none;align=left;spacingLeft=10;strokeColor=none;rounded=1;arcSize=11;fontColor=#FFFFFF;resizable=0;points=[[0.25,0,0],[0.5,0,0],[0.75,0,0],[1,0.25,0],[1,0.5,0],[1,0.75,0],[0.75,1,0],[0.5,1,0],[0.25,1,0],[0,0.75,0],[0,0.5,0],[0,0.25,0]];shadow=0;labelBackgroundColor=none;labelBorderColor=none;sketch=0;fontSize=12;" parent="3RHmT__N5yNQgqtIp_2Z-1" vertex="1">
                    <mxGeometry x="-1688" y="-574" width="180" height="110" as="geometry"/>
                </mxCell>
                <mxCell id="3RHmT__N5yNQgqtIp_2Z-6" value="Container" style="shape=partialRectangle;html=1;whiteSpace=wrap;connectable=0;fillColor=#23A2D9;top=0;left=0;bottom=0;right=0;overflow=hidden;pointerEvents=1;align=left;spacingLeft=10;fontColor=#FFFFFF;rounded=0;shadow=0;labelBackgroundColor=none;labelBorderColor=none;sketch=0;fontSize=12;strokeColor=default;strokeWidth=3;" parent="3RHmT__N5yNQgqtIp_2Z-5" vertex="1">
                    <mxGeometry width="180" height="30" as="geometry"/>
                </mxCell>
                <mxCell id="3RHmT__N5yNQgqtIp_2Z-7" value="Component" style="shape=partialRectangle;html=1;whiteSpace=wrap;connectable=0;fillColor=#52A2D8;top=0;left=0;bottom=0;right=0;overflow=hidden;pointerEvents=1;align=left;spacingLeft=10;fontColor=#FFFFFF;rounded=0;shadow=0;labelBackgroundColor=none;labelBorderColor=none;sketch=0;fontSize=12;strokeColor=default;strokeWidth=3;" parent="3RHmT__N5yNQgqtIp_2Z-5" vertex="1">
                    <mxGeometry y="30" width="180" height="30" as="geometry"/>
                </mxCell>
                <mxCell id="3RHmT__N5yNQgqtIp_2Z-8" value="Base de datos" style="shape=partialRectangle;html=1;whiteSpace=wrap;connectable=0;fillColor=#82B366;top=0;left=0;bottom=0;right=0;overflow=hidden;pointerEvents=1;align=left;spacingLeft=10;fontColor=#FFFFFF;rounded=0;shadow=0;labelBackgroundColor=none;labelBorderColor=none;sketch=0;fontSize=12;strokeColor=default;strokeWidth=3;" parent="3RHmT__N5yNQgqtIp_2Z-5" vertex="1">
                    <mxGeometry y="60" width="180" height="20" as="geometry"/>
                </mxCell>
                <mxCell id="3RHmT__N5yNQgqtIp_2Z-9" value="External Software System" style="shape=partialRectangle;html=1;whiteSpace=wrap;connectable=0;fillColor=#8B8496;top=0;left=0;bottom=0;right=0;overflow=hidden;pointerEvents=1;align=left;spacingLeft=10;fontColor=#FFFFFF;rounded=0;shadow=0;labelBackgroundColor=none;labelBorderColor=none;sketch=0;fontSize=12;strokeColor=default;strokeWidth=3;" parent="3RHmT__N5yNQgqtIp_2Z-5" vertex="1">
                    <mxGeometry y="80" width="180" height="30" as="geometry"/>
                </mxCell>
                <mxCell id="3RHmT__N5yNQgqtIp_2Z-10" value="" style="shape=waypoint;sketch=0;size=6;pointerEvents=1;points=[];fillColor=#23A2D9;resizable=0;rotatable=0;perimeter=centerPerimeter;snapToPoint=1;fontSize=11;strokeColor=#0E7DAD;fontColor=#ffffff;rounded=1;labelBackgroundColor=none;arcSize=10;shadow=0;labelBorderColor=none;" parent="3RHmT__N5yNQgqtIp_2Z-1" vertex="1">
                    <mxGeometry x="56" y="-896" width="40" height="40" as="geometry"/>
                </mxCell>
                <object placeholders="1" c4Type="Relationship" c4Technology="JSON/HTTPS" c4Description="Llamada a la API" label="&lt;div style=&quot;text-align: left&quot;&gt;&lt;div style=&quot;text-align: center&quot;&gt;&lt;b&gt;%c4Description%&lt;/b&gt;&lt;/div&gt;&lt;div style=&quot;text-align: center&quot;&gt;[%c4Technology%]&lt;/div&gt;&lt;/div&gt;" id="3RHmT__N5yNQgqtIp_2Z-12">
                    <mxCell style="endArrow=blockThin;html=1;fontSize=10;fontColor=#D5E8D4;strokeWidth=3;endFill=1;strokeColor=#d6b656;elbow=vertical;metaEdit=1;endSize=14;startSize=14;jumpStyle=arc;jumpSize=16;rounded=1;edgeStyle=orthogonalEdgeStyle;shadow=0;labelBackgroundColor=none;sketch=0;fillColor=#fff2cc;dashed=1;exitX=0.25;exitY=1;exitDx=0;exitDy=0;exitPerimeter=0;spacingLeft=110;entryX=0.5;entryY=0;entryDx=0;entryDy=0;entryPerimeter=0;" parent="3RHmT__N5yNQgqtIp_2Z-1" target="3RHmT__N5yNQgqtIp_2Z-15" edge="1">
                        <mxGeometry width="240" relative="1" as="geometry">
                            <mxPoint x="-1348" y="-1352" as="sourcePoint"/>
                            <mxPoint x="-1056" y="-1144" as="targetPoint"/>
                            <Array as="points">
                                <mxPoint x="-1348" y="-1200"/>
                                <mxPoint x="-1344" y="-1200"/>
                                <mxPoint x="-1344" y="-1160"/>
                                <mxPoint x="-1264" y="-1160"/>
                            </Array>
                        </mxGeometry>
                    </mxCell>
                </object>
                <object placeholders="1" c4Name="Aplicacion Web Progresiva (PWA)" c4Type="ContainerScopeBoundary" c4Application="Container" label="&lt;font style=&quot;font-size: 16px&quot;&gt;&lt;b&gt;&lt;div style=&quot;text-align: left&quot;&gt;%c4Name%&lt;/div&gt;&lt;/b&gt;&lt;/font&gt;&lt;div style=&quot;text-align: left&quot;&gt;[%c4Application%]&lt;/div&gt;" id="3RHmT__N5yNQgqtIp_2Z-14">
                    <mxCell style="rounded=1;fontSize=11;whiteSpace=wrap;html=1;dashed=1;arcSize=20;fillColor=none;strokeColor=#52A2D8;fontColor=#D5E8D4;labelBackgroundColor=none;align=left;verticalAlign=bottom;labelBorderColor=none;spacingTop=0;spacing=10;dashPattern=8 4;metaEdit=1;rotatable=0;perimeter=rectanglePerimeter;labelPadding=0;allowArrows=0;connectable=0;expand=0;recursiveResize=0;editable=1;pointerEvents=0;absoluteArcSize=1;points=[[0.25,0,0],[0.5,0,0],[0.75,0,0],[1,0.25,0],[1,0.5,0],[1,0.75,0],[0.75,1,0],[0.5,1,0],[0.25,1,0],[0,0.75,0],[0,0.5,0],[0,0.25,0]];shadow=0;sketch=0;strokeWidth=6;" parent="3RHmT__N5yNQgqtIp_2Z-1" vertex="1">
                        <mxGeometry x="-1456" y="-1136" width="1528" height="672" as="geometry"/>
                    </mxCell>
                </object>
                <object placeholders="1" c4Name="Auth Controller" c4Type="Controlador" c4Technology="Spring MVC : Rest Controller" c4Description="Permite al usuario autenticarse en el sistema de gestion y logistica" label="&lt;font style=&quot;font-size: 16px&quot;&gt;&lt;b&gt;%c4Name%&lt;/b&gt;&lt;/font&gt;&lt;div&gt;[%c4Type%: %c4Technology%]&lt;/div&gt;&lt;br&gt;&lt;div&gt;&lt;font style=&quot;font-size: 11px&quot;&gt;%c4Description%&lt;/font&gt;&lt;/div&gt;" id="3RHmT__N5yNQgqtIp_2Z-15">
                    <mxCell style="rounded=1;whiteSpace=wrap;html=1;labelBackgroundColor=none;fillColor=#63BEF2;fontColor=#ffffff;align=center;arcSize=6;strokeColor=#2086C9;metaEdit=1;resizable=0;points=[[0.25,0,0],[0.5,0,0],[0.75,0,0],[1,0.25,0],[1,0.5,0],[1,0.75,0],[0.75,1,0],[0.5,1,0],[0.25,1,0],[0,0.75,0],[0,0.5,0],[0,0.25,0]];shadow=0;labelBorderColor=none;sketch=0;fontSize=12;" parent="3RHmT__N5yNQgqtIp_2Z-1" vertex="1">
                        <mxGeometry x="-1384" y="-1088" width="240" height="120" as="geometry"/>
                    </mxCell>
                </object>
                <object placeholders="1" c4Type="Relationship" c4Description="Usa" label="&lt;div style=&quot;text-align: left; font-size: 20px;&quot;&gt;&lt;div style=&quot;text-align: center; font-size: 20px;&quot;&gt;&lt;b style=&quot;font-size: 20px;&quot;&gt;%c4Description%&lt;/b&gt;&lt;/div&gt;&lt;/div&gt;" id="3RHmT__N5yNQgqtIp_2Z-17">
                    <mxCell style="endArrow=blockThin;html=1;fontSize=20;fontColor=#D5E8D4;strokeWidth=5;endFill=1;strokeColor=#d6b656;elbow=vertical;metaEdit=1;jumpStyle=arc;jumpSize=16;rounded=1;edgeStyle=orthogonalEdgeStyle;fillColor=#fff2cc;exitX=0.5;exitY=1;exitDx=0;exitDy=0;exitPerimeter=0;labelBackgroundColor=none;spacingLeft=50;shadow=0;sketch=0;spacingTop=0;" parent="3RHmT__N5yNQgqtIp_2Z-1" source="3RHmT__N5yNQgqtIp_2Z-15" edge="1">
                        <mxGeometry width="240" relative="1" as="geometry">
                            <mxPoint x="-1312" y="-1313" as="sourcePoint"/>
                            <mxPoint x="-1264" y="-896" as="targetPoint"/>
                        </mxGeometry>
                    </mxCell>
                </object>
                <object placeholders="1" c4Type="Relationship" c4Technology="JSON/HTTPS" c4Description="Llamada a la API" label="&lt;div style=&quot;text-align: left&quot;&gt;&lt;div style=&quot;text-align: center&quot;&gt;&lt;b&gt;%c4Description%&lt;/b&gt;&lt;/div&gt;&lt;div style=&quot;text-align: center&quot;&gt;[%c4Technology%]&lt;/div&gt;&lt;/div&gt;" id="3RHmT__N5yNQgqtIp_2Z-19">
                    <mxCell style="endArrow=blockThin;html=1;fontSize=10;fontColor=#D5E8D4;strokeWidth=3;endFill=1;strokeColor=#d6b656;elbow=vertical;metaEdit=1;endSize=14;startSize=14;jumpStyle=arc;jumpSize=16;rounded=1;edgeStyle=orthogonalEdgeStyle;shadow=0;labelBackgroundColor=none;sketch=0;fillColor=#fff2cc;dashed=1;exitX=0.5;exitY=1;exitDx=0;exitDy=0;exitPerimeter=0;spacingLeft=0;entryX=0.5;entryY=0;entryDx=0;entryDy=0;entryPerimeter=0;spacingBottom=35;startArrow=none;" parent="3RHmT__N5yNQgqtIp_2Z-1" source="1qI9b6YlHvEvDA7baH1M-1" edge="1">
                        <mxGeometry width="240" relative="1" as="geometry">
                            <mxPoint x="-1168" y="-1382" as="sourcePoint"/>
                            <mxPoint x="-712" y="-1088" as="targetPoint"/>
                        </mxGeometry>
                    </mxCell>
                </object>
                <object placeholders="1" c4Name="Administrador de pedidos" c4Type="Personal Administrativo" c4Description="Administrador de pedidos&#10;(FacturaciÃ³n, Servicio al cliente)" label="&lt;font style=&quot;font-size: 16px&quot;&gt;&lt;b&gt;%c4Name%&lt;/b&gt;&lt;/font&gt;&lt;div&gt;[%c4Type%]&lt;/div&gt;&lt;br&gt;&lt;div&gt;&lt;font style=&quot;font-size: 11px&quot;&gt;&lt;font&gt;%c4Description%&lt;/font&gt;&lt;/font&gt;&lt;/div&gt;" id="1qI9b6YlHvEvDA7baH1M-0">
                    <mxCell style="html=1;fontSize=11;dashed=0;whitespace=wrap;shape=mxgraph.c4.person2;align=center;metaEdit=1;points=[[0.5,0,0],[1,0.5,0],[1,0.75,0],[0.75,1,0],[0.5,1,0],[0.25,1,0],[0,0.75,0],[0,0.5,0]];resizable=0;labelBorderColor=none;labelBackgroundColor=none;shadow=0;sketch=0;spacingTop=0;spacingLeft=0;perimeterSpacing=0;spacing=2;fillColor=#647687;fontColor=#ffffff;strokeColor=#314354;" parent="3RHmT__N5yNQgqtIp_2Z-1" vertex="1">
                        <mxGeometry x="-1456" y="-1540" width="200" height="180" as="geometry"/>
                    </mxCell>
                </object>
                <object placeholders="1" c4Name="Bodeguero" c4Type="Personal Bodega&#10;" c4Description="Administra inventario" label="&lt;font style=&quot;font-size: 16px&quot;&gt;&lt;b&gt;%c4Name%&lt;/b&gt;&lt;/font&gt;&lt;div&gt;[%c4Type%]&lt;/div&gt;&lt;br&gt;&lt;div&gt;&lt;font style=&quot;font-size: 11px&quot;&gt;&lt;font&gt;%c4Description%&lt;/font&gt;&lt;/font&gt;&lt;/div&gt;" id="1qI9b6YlHvEvDA7baH1M-2">
                    <mxCell style="html=1;fontSize=11;dashed=0;whitespace=wrap;fillColor=#6666FF;strokeColor=#788AA3;fontColor=#CCCCCC;shape=mxgraph.c4.person2;align=center;metaEdit=1;points=[[0.5,0,0],[1,0.5,0],[1,0.75,0],[0.75,1,0],[0.5,1,0],[0.25,1,0],[0,0.75,0],[0,0.5,0]];resizable=0;" parent="3RHmT__N5yNQgqtIp_2Z-1" vertex="1">
                        <mxGeometry x="-144" y="-1540" width="200" height="180" as="geometry"/>
                    </mxCell>
                </object>
                <mxCell id="1qI9b6YlHvEvDA7baH1M-3" style="edgeStyle=orthogonalEdgeStyle;rounded=1;orthogonalLoop=1;jettySize=auto;html=1;exitX=0.5;exitY=1;exitDx=0;exitDy=0;exitPerimeter=0;fontSize=11;fontColor=#CCCCCC;strokeColor=#788AA3;strokeWidth=4;fillColor=#B2C9AB;" parent="3RHmT__N5yNQgqtIp_2Z-1" source="1qI9b6YlHvEvDA7baH1M-0" target="1qI9b6YlHvEvDA7baH1M-0" edge="1">
                    <mxGeometry relative="1" as="geometry"/>
                </mxCell>
                <object placeholders="1" c4Name="Alistador de Pedidos" c4Type="Personal Bodega&#10;" c4Description="Gestiona alisto y despacho de pedidos" label="&lt;font style=&quot;font-size: 16px&quot;&gt;&lt;b&gt;%c4Name%&lt;/b&gt;&lt;/font&gt;&lt;div&gt;[%c4Type%]&lt;/div&gt;&lt;br&gt;&lt;div&gt;&lt;font style=&quot;font-size: 11px&quot;&gt;&lt;font&gt;%c4Description%&lt;/font&gt;&lt;/font&gt;&lt;/div&gt;" id="1qI9b6YlHvEvDA7baH1M-1">
                    <mxCell style="html=1;fontSize=11;dashed=0;whitespace=wrap;fillColor=#6666FF;strokeColor=#788AA3;fontColor=#CCCCCC;shape=mxgraph.c4.person2;align=center;metaEdit=1;points=[[0.5,0,0],[1,0.5,0],[1,0.75,0],[0.75,1,0],[0.5,1,0],[0.25,1,0],[0,0.75,0],[0,0.5,0]];resizable=0;" parent="3RHmT__N5yNQgqtIp_2Z-1" vertex="1">
                        <mxGeometry x="-840" y="-1540" width="200" height="180" as="geometry"/>
                    </mxCell>
                </object>
                <object placeholders="1" c4Name="API REST : Local" c4Type="Container" c4Technology="Java, Spring Boot MVC, JHipster" c4Description="Provee localmente los datos del sistema de logistica de bodega y gestion de pedidos mediante JSON/HTTPS API" label="&lt;font style=&quot;font-size: 16px&quot;&gt;&lt;b&gt;%c4Name%&lt;/b&gt;&lt;/font&gt;&lt;div&gt;[%c4Type%: %c4Technology%]&lt;/div&gt;&lt;br&gt;&lt;div&gt;&lt;font style=&quot;font-size: 11px&quot;&gt;&lt;font color=&quot;#E6E6E6&quot;&gt;%c4Description%&lt;/font&gt;&lt;/div&gt;" id="-0elHoXghfkMtC15ezSE-0">
                    <mxCell style="rounded=1;whiteSpace=wrap;html=1;fontSize=11;labelBackgroundColor=none;fillColor=#23A2D9;fontColor=#ffffff;align=center;arcSize=10;strokeColor=#0E7DAD;metaEdit=1;resizable=0;points=[[0.25,0,0],[0.5,0,0],[0.75,0,0],[1,0.25,0],[1,0.5,0],[1,0.75,0],[0.75,1,0],[0.5,1,0],[0.25,1,0],[0,0.75,0],[0,0.5,0],[0,0.25,0]];shadow=0;labelBorderColor=none;sketch=0;" parent="3RHmT__N5yNQgqtIp_2Z-1" vertex="1">
                        <mxGeometry x="160" y="-936" width="240" height="120" as="geometry"/>
                    </mxCell>
                </object>
                <object placeholders="1" c4Type="Relationship" c4Technology="JSON/HTTP" c4Description="Llamada a la API" label="&lt;div style=&quot;text-align: left&quot;&gt;&lt;div style=&quot;text-align: center&quot;&gt;&lt;b&gt;%c4Description%&lt;/b&gt;&lt;/div&gt;&lt;div style=&quot;text-align: center&quot;&gt;[%c4Technology%]&lt;/div&gt;&lt;/div&gt;" id="0WGdgBKh7iu-ho7jAYqX-0">
                    <mxCell style="endArrow=blockThin;html=1;fontSize=10;fontColor=#D5E8D4;strokeWidth=3;endFill=1;strokeColor=#d6b656;elbow=vertical;metaEdit=1;endSize=14;startSize=14;jumpStyle=arc;jumpSize=16;rounded=1;edgeStyle=orthogonalEdgeStyle;shadow=0;labelBackgroundColor=none;sketch=0;fillColor=#fff2cc;dashed=1;exitX=0.5;exitY=-0.1;exitDx=0;exitDy=0;exitPerimeter=0;spacingLeft=110;entryX=0;entryY=0.5;entryDx=0;entryDy=0;entryPerimeter=0;" parent="3RHmT__N5yNQgqtIp_2Z-1" source="3RHmT__N5yNQgqtIp_2Z-10" target="-0elHoXghfkMtC15ezSE-0" edge="1">
                        <mxGeometry x="0.0079" y="8" width="240" relative="1" as="geometry">
                            <mxPoint x="-1048" y="-1064.0000000000002" as="sourcePoint"/>
                            <mxPoint x="-1048" y="-937" as="targetPoint"/>
                            <mxPoint as="offset"/>
                        </mxGeometry>
                    </mxCell>
                </object>
            </root>
        </mxGraphModel>
    </diagram>
    <diagram id="8qFWhc6Zt2y8rx4pcBFK" name="Requisitos">
        <mxGraphModel dx="2785" dy="3400" grid="1" gridSize="10" guides="1" tooltips="1" connect="1" arrows="1" fold="1" page="1" pageScale="1" pageWidth="1200" pageHeight="1920" math="0" shadow="0">
            <root>
                <mxCell id="0"/>
                <mxCell id="1" parent="0"/>
            </root>
        </mxGraphModel>
    </diagram>
</mxfile>